<svg xmlns="http://www.w3.org/2000/svg" viewBox="0 0 914.84 757.47">
  <defs>
    <style>
      .cls-1, .cls-3 {
        fill: #1d75bb;
      }

      .cls-1 {
        opacity: 0.1;
        isolation: isolate;
      }

      .cls-2, .cls-5 {
        fill: none;
        stroke-miterlimit: 10;
      }

      .cls-2 {
        stroke: #1d75bb;
        stroke-width: 10px;
      }

      .cls-4 {
        fill: #8cc63f;
      }

      .cls-5 {
        stroke: #8cc63f;
        stroke-width: 4px;
      }
    </style>
  </defs>
  <g id="Layer_2" data-name="Layer 2">
    <g id="Layer_1-2" data-name="Layer 1">
      <path class="cls-1" d="M872.73,698.54c-10.2-3-5.5-6.49,11.9-8.89l.5-.07c55.5-7.8-21.8-28.47-172.7-46.15s-318.2-25.7-373.7-17.9c-15.6,2.2-20.7,5.42-16.6,9.31,5.1,4.76-22.6,9-60,9.29-78.2.52-146.9,4.06-195.3,10.85-131.4,18.47-63.1,53.95,152.7,79.23S716.63,765,848,746.56C930.33,735,934.23,716.77,872.73,698.54Z"/>
      <g>
        <circle class="cls-2" cx="358.34" cy="71.4" r="66.4"/>
        <circle class="cls-2" cx="556.64" cy="87.7" r="66.4"/>
        <circle class="cls-2" cx="715.94" cy="222" r="66.4"/>
        <g>
          <ellipse class="cls-3" cx="393.8" cy="343.8" rx="70.5" ry="51.2" transform="translate(38.94 727.66) rotate(-88.37)"/>
          <path class="cls-3" d="M264.64,336.2s12.5,44.6,26.6,68.3,56.4,66.5,56.4,66.5-18.1,29.3-44.2,54.7-67.3,50-67.3,50,37.3,5.3,71.1-6.8,67.3-43,67.3-43-2.3,36.4-6.7,61.5-14.7,72.5-14.7,72.5,43.6-48,61.1-95,14.9-96.3,14.9-96.3,35-21.8,55.4-50.3,35.4-69.7,35.4-69.7-83.5,79.3-132,74.8C329.44,417.2,264.64,336.2,264.64,336.2Z"/>
          <path class="cls-3" d="M264.64,336.2s8.4,37.6,24.8,65.2,58.3,69.5,58.3,69.5"/>
        </g>
        <g>
          <rect class="cls-3" x="495.82" y="161.59" width="20.5" height="6.7" transform="translate(81.96 486.57) rotate(-55.23)"/>
          <rect class="cls-3" x="479.65" y="184.9" width="20.5" height="6.7" transform="translate(55.87 483.3) rotate(-55.23)"/>
          <rect class="cls-3" x="463.34" y="208.22" width="20.5" height="6.7" transform="translate(29.7 479.93) rotate(-55.23)"/>
          <rect class="cls-3" x="447.17" y="231.53" width="20.5" height="6.7" transform="translate(3.61 476.66) rotate(-55.23)"/>
          <rect class="cls-3" x="431" y="254.83" width="20.5" height="6.7" transform="translate(-22.48 473.39) rotate(-55.23)"/>
        </g>
        <g>
          <rect class="cls-3" x="370.08" y="148.27" width="6.7" height="20.5" transform="translate(-18.48 53.72) rotate(-8.03)"/>
          <rect class="cls-3" x="374.05" y="176.41" width="6.7" height="20.5" transform="translate(-22.37 54.55) rotate(-8.03)"/>
          <rect class="cls-3" x="378" y="204.44" width="6.7" height="20.5" transform="translate(-26.25 55.38) rotate(-8.03)"/>
          <rect class="cls-3" x="382.07" y="232.56" width="6.7" height="20.5" transform="translate(-30.14 56.22) rotate(-8.03)"/>
        </g>
        <g>
          <g>
            <rect class="cls-3" x="618.53" y="252.02" width="20.5" height="6.7" transform="translate(-49.85 249.23) rotate(-21.59)"/>
            <rect class="cls-3" x="592.13" y="262.39" width="20.5" height="6.7" transform="translate(-55.52 240.25) rotate(-21.59)"/>
            <rect class="cls-3" x="565.77" y="272.86" width="20.5" height="6.7" transform="translate(-61.22 231.28) rotate(-21.59)"/>
            <rect class="cls-3" x="539.32" y="283.37" width="20.5" height="6.7" transform="translate(-66.94 222.29) rotate(-21.59)"/>
          </g>
          <g>
            <rect class="cls-3" x="513.08" y="294.82" width="20.5" height="6.7" transform="translate(-72.99 213.44) rotate(-21.59)"/>
            <rect class="cls-3" x="486.72" y="305.28" width="20.5" height="6.7" transform="translate(-78.69 204.47) rotate(-21.59)"/>
            <rect class="cls-3" x="460.32" y="315.66" width="20.5" height="6.7" transform="translate(-84.36 195.49) rotate(-21.59)"/>
          </g>
        </g>
        <path class="cls-4" d="M386,56l-10.1-1.4v-.1a10.3,10.3,0,0,0-8.8-11.7L354.74,41A10.3,10.3,0,0,0,343,49.8v.1l-10.1-1.4a10.3,10.3,0,0,0-11.7,8.8L317,86.8a10.3,10.3,0,0,0,8.8,11.7l53.1,7.6a10.3,10.3,0,0,0,11.7-8.8l4.2-29.5A10.55,10.55,0,0,0,386,56Zm-38.4-5.6a5.63,5.63,0,0,1,6.5-4.8l12.4,1.8a5.63,5.63,0,0,1,4.8,6.5V54l-23.8-3.4Zm38.3,46.1a5.63,5.63,0,0,1-6.5,4.8l-53.1-7.6a5.63,5.63,0,0,1-4.8-6.5l4.2-29.5a5.63,5.63,0,0,1,6.5-4.8l10.1,1.4,32.9,4.7,10.1,1.4a5.63,5.63,0,0,1,4.8,6.5Z"/>
        <path class="cls-4" d="M594.54,66.3a25,25,0,0,0-46.6.4,25,25,0,1,0-11.6,47.4h0a20.55,20.55,0,0,0,3.5-.2,50.35,50.35,0,0,1,31.1,10.9,49.5,49.5,0,0,1,15.3-29.2c.9-.7,1.8-1.5,2.7-2.3h0A25.2,25.2,0,0,0,594.54,66.3Zm-11.2,26.8h0a20,20,0,0,1-2.2,1.9,41.56,41.56,0,0,0-12.5,24,41.61,41.61,0,0,0-25.6-9,14.08,14.08,0,0,1-2.9.1h0a20.56,20.56,0,1,1,9.5-39,21,21,0,0,1,11.7-11.9A20.58,20.58,0,0,1,588,70.7,20.88,20.88,0,0,1,583.34,93.1Z"/>
        <polygon class="cls-5" points="756.94 211.9 727.44 211.1 728.24 181.6 705.94 181 705.04 210.5 675.54 209.6 674.94 232 704.44 232.8 703.54 262.3 725.94 263 726.84 233.5 756.34 234.3 756.94 211.9"/>
      </g>
    </g>
  </g>
</svg>
