<svg xmlns="http://www.w3.org/2000/svg" viewBox="0 0 838 809.6"><g id="f046b8d7-1a7e-482e-ac6a-2483ad8d5d04" data-name="Layer 2"><g id="eeecb1fb-d0de-4b65-ac6d-0696ba6b9966" data-name="DeskTop"><path d="M690.7,559.1l-243-102.9a20.7,20.7,0,0,0-16-.1L84.3,597a7.5,7.5,0,0,0,0,14l242.8,99.6a35.9,35.9,0,0,0,27.3,0l175.9-72c-.2-16.1-.8-32-1.4-45.2s72.6-41.6,86.7-40.1c6.8.7,14.9,17.4,21.9,41.5L690.6,573A7.5,7.5,0,0,0,690.7,559.1Z" fill="#009eff" opacity="0.73"/><path d="M513.6,644.1,343,712.7a7.3,7.3,0,0,1-5.8,0L84.1,611a7.5,7.5,0,0,1-4.6-7.4c-1.4,7.2,1.7,18.1,6.6,20.1L331.6,724.5a28.9,28.9,0,0,0,22,0l159.1-65.1C513.6,655,513.7,649,513.6,644.1Z" fill="#13217d"/><path d="M695,563.9h-.2a7.6,7.6,0,0,1-4.4,9.2l-53,21.4c1.1,4,2.3,8.2,3.4,12.5l51.6-21.1C698.6,583.3,695,563.9,695,563.9Z" fill="#13217d"/></g><g id="fb4540fc-7845-47d2-9e26-1ac4f9c8381c" data-name="Monitor"><g id="ae8d21c2-3f70-437d-ab84-a8bca3ecb17a" data-name="DeskTop copy"><polygon points="303.7 481.1 303.7 481.1 303.7 481.1 303.7 481.1" fill="#13217d"/><g opacity="0.74"><path d="M378.5,518l-19.9-9.9L245.3,554l22,10.6a10,10,0,0,0,8.3.3l102.7-42.4A2.5,2.5,0,0,0,378.5,518Z" fill="#fff"/></g><path d="M379.7,519.6h0a2.5,2.5,0,0,1-1.4,3l-106.2,43a2,2,0,0,1-1.7-.1L227,544.9l-4.8,2,46.3,22.3a8.2,8.2,0,0,0,6.7.2l103.6-42.6C380.7,526,379.7,519.6,379.7,519.6Z" fill="#5963a4"/></g><path d="M69.6,423.5v80.2a1.4,1.4,0,0,0,2,1.3l100-40.4a1.5,1.5,0,0,0,1-1.5l-1.2-81.3a1.6,1.6,0,0,0-2.2-1.5L71.3,421A2.7,2.7,0,0,0,69.6,423.5Z" fill="#00b8ff" opacity="0.32"/><text transform="matrix(1, -0.38, 0, 1, 83.22, 470.54)" opacity="0.65" font-size="53.23" fill="#29abe2" font-family="MyriadPro-Regular, Myriad Pro">abc</text><path d="M364.5,306.9v80.2a1.4,1.4,0,0,0,1.9,1.3L466.5,348a1.5,1.5,0,0,0,1-1.5l-1.2-81.3a1.6,1.6,0,0,0-2.3-1.5l-97.8,40.7A2.7,2.7,0,0,0,364.5,306.9Z" fill="#00b8ff" opacity="0.32"/><path d="M213,417.4l179.4-73.7s-4.4-3.6-7.6-3.1l-.7.2L209.9,413.3a5.1,5.1,0,0,0-3.2,4.8V561.3c0,2.6,5.5,5,5.5,5s-.1-147.6-.1-147.6A1.3,1.3,0,0,1,213,417.4Z" fill="#5963a4"/><path d="M211.2,420.7V564.3a2.5,2.5,0,0,0,3.5,2.3l179.1-72.3a2.9,2.9,0,0,0,1.8-2.7l-2.1-145.7a3,3,0,0,0-4.1-2.6L214.2,416.2A4.8,4.8,0,0,0,211.2,420.7Z" fill="#fff"/><path d="M211.2,420.7V564.3a2.5,2.5,0,0,0,3.6,2.1l178.9-72.5a2.4,2.4,0,0,0,1.9-2.3l-2.1-145.7a3,3,0,0,0-4.1-2.6L214.2,416.2A4.8,4.8,0,0,0,211.2,420.7Z" fill="#0071bc" opacity="0.85"/><path d="M211.2,548.3v16a2.5,2.5,0,0,0,3.5,2.3l179.1-72.3a2.9,2.9,0,0,0,1.8-2.7l-.3-17.7Z" fill="#002167"/><path d="M294.1,522.6v2.6a.4.4,0,0,0,.6.3l29.2-11.8c.2,0,.3-.2.3-.4v-2.9Z" fill="#0071bc"/><text transform="matrix(1, -0.38, 0, 1, 294.08, 473.91)" opacity="0.36" font-size="37.56" fill="#fff" font-family="MyriadPro-Regular, Myriad Pro">abc</text><g id="feb91330-a347-4d91-b8fc-087650e75342" data-name="Shapes" opacity="0.7"><ellipse cx="405" cy="328.4" rx="11.9" ry="9.4" transform="translate(-116.4 321.2) rotate(-38.2)" fill="#0071bc"/><polygon points="454.2 308.4 433.8 315.1 431.2 296.8 451.7 290 454.2 308.4" fill="#0071bc"/><polygon points="436.8 350.2 420.5 342 433.2 324.3 449.5 332.4 436.8 350.2" fill="#0071bc"/><polygon points="480.6 313.2 464.3 305 477 287.3 480.6 313.2" fill="#0071bc"/></g><g id="b80b51d0-b6fa-4cbd-9f51-f2acaee6a362" data-name="Shapes"><ellipse cx="406.6" cy="326.5" rx="11.9" ry="9.4" transform="translate(-114.8 321.8) rotate(-38.2)" fill="#0071bc"/><polygon points="455.9 306.4 435.4 313.2 432.9 294.9 453.3 288.1 455.9 306.4" fill="#0071bc"/><polygon points="438.4 348.2 422.2 340.1 434.8 322.3 451.1 330.5 438.4 348.2" fill="#0071bc"/><polygon points="482.2 311.2 465.9 303.1 478.6 285.4 482.2 311.2" fill="#0071bc"/></g><g id="f7770d04-9dcf-4f07-b801-1dfe813a34cd" data-name="Shapes" opacity="0.22"><ellipse cx="206.7" cy="237.7" rx="78.7" ry="62" transform="matrix(0.79, -0.62, 0.62, 0.79, -102.82, 178.95)" fill="#0071bc"/><polygon points="110.7 211 12.2 243.6 0 155.4 98.5 122.8 110.7 211" fill="#0071bc"/><polygon points="732.3 317.8 649.6 241.4 755.3 157.7 838 234.1 732.3 317.8" fill="#0071bc"/><polygon points="455.2 85.1 386.1 80.9 404 0 455.2 85.1" fill="#0071bc"/></g><ellipse cx="268.3" cy="436.1" rx="14.6" ry="10.6" transform="translate(-204.8 631.8) rotate(-80.9)" fill="#29abe2"/><path d="M242,431s1.3,9.5,3.6,14.8,9.8,15.2,9.8,15.2a66.2,66.2,0,0,1-10.6,10c-6,4.5-15.2,8.5-15.2,8.5s7.6,2.1,14.8.5,15-7,15-7-1.4,7.4-3,12.4-5,14.5-5,14.5,10.2-8.7,15.1-17.8a55.9,55.9,0,0,0,5.7-19.4s7.8-3.6,12.7-8.9,9.2-13.3,9.2-13.3-19.3,14-29.1,11.8C253.1,449.4,242,431,242,431Z" fill="#29abe2"/><path d="M242,431s.7,8,3.3,14.1S255.4,461,255.4,461" fill="#29abe2"/><path d="M589.2,312.5a22.6,22.6,0,1,0-41.9-2.2c.4,2.5,1.3,5.5.8,8.3-.2,1.2-.5,2.3-3.2,8.3a3.9,3.9,0,0,0,1.9,5.1l14.5,6.5a3.7,3.7,0,0,0,5-1.8c2.8-6,3.4-7,4.2-7.9s4.7-3.6,6.9-4.8A23.2,23.2,0,0,0,589.2,312.5Z" fill="#0071bc"/><rect x="541.3" y="337.3" width="21.2" height="5.27" rx="2.6" transform="translate(190.2 -197.9) rotate(24.4)" fill="#0071bc"/><rect x="539.3" y="344.5" width="18.8" height="5.27" rx="2.6" transform="translate(192.8 -196) rotate(24.4)" fill="#0071bc"/><rect x="575.4" y="265" width="18.8" height="5.27" rx="2.6" transform="translate(99.1 689.3) rotate(-65.6)" fill="#0071bc"/><rect x="598.2" y="285.7" width="18.8" height="5.27" rx="2.6" transform="translate(-62.6 231.7) rotate(-20.6)" fill="#0071bc"/><rect x="544" y="261" width="18.8" height="5.27" rx="2.6" transform="translate(606 -347) rotate(69.4)" fill="#0071bc"/><rect x="595.6" y="314.2" width="18.8" height="5.27" rx="2.6" transform="translate(185.4 -222) rotate(24.4)" fill="#0071bc"/><rect x="525.7" y="282.4" width="18.8" height="5.27" rx="2.6" transform="translate(165.9 -195.9) rotate(24.4)" fill="#0071bc"/><text transform="matrix(1, -0.38, 0, 1, 139.97, 399.97)" opacity="0.46" font-size="90.23" fill="blue" font-family="MyriadPro-Regular, Myriad Pro">abc</text><text transform="matrix(1, -0.38, 0, 1, 141.65, 399.97)" font-size="90.23" fill="#0071bc" font-family="MyriadPro-Regular, Myriad Pro">abc</text><text transform="matrix(1, -0.38, 0, 1, 235.96, 314.59)" opacity="0.22" font-size="217.98" fill="#0071bc" font-family="MyriadPro-Regular, Myriad Pro">abc</text><g id="fa664335-b6a2-46e7-9dee-f34d700c9fa1" data-name="Shapes"><ellipse cx="331.8" cy="392.4" rx="7.4" ry="5.7" transform="translate(-104.4 120.7) rotate(-17.9)" fill="#29abe2"/><polygon points="362.2 399.1 350.2 395.5 356.4 385.1 368.4 388.7 362.2 399.1" fill="#29abe2"/><polygon points="337.5 414.9 333.4 405 346.2 400.1 350.3 410.1 337.5 414.9" fill="#29abe2"/><polygon points="372.2 410.8 368.1 400.9 380.9 396.1 372.2 410.8" fill="#29abe2"/></g></g><g id="f4872d80-a728-4b90-ad5d-68fd21676179" data-name="KeyBoard"><g opacity="0.5"><path d="M514.5,546.3,329.4,624.4a5.4,5.4,0,0,1-4.3,0L261,598.1c-.1-.1-.5-3-.6-3.1s-.8,5.6.6,6.2l64.1,26.3a5.4,5.4,0,0,0,4.3,0l184.7-74.9C515.6,552,516,547.1,514.5,546.3Z" fill="#12217c"/><path d="M514.2,546l-63.1-26.7a6.1,6.1,0,0,0-4.4-.1L261,594.5a2,2,0,0,0,0,3.6l64.1,26.3a6.4,6.4,0,0,0,4.3,0l184.7-74.9A1.9,1.9,0,0,0,514.2,546Z" fill="aqua"/><path d="M443,563.8l-40.7-17.2a3.4,3.4,0,0,0-2.8,0L279.4,595.2a1.3,1.3,0,0,0,0,2.3l41.5,17a3.2,3.2,0,0,0,2.7,0L443,566.1A1.2,1.2,0,0,0,443,563.8Z" fill="#00d5d5"/><path d="M494.7,543,454,525.8a3.7,3.7,0,0,0-2.9,0l-41.8,17a1.2,1.2,0,0,0,0,2.2l41.4,17a3.4,3.4,0,0,0,2.8,0l41.2-16.7A1.3,1.3,0,0,0,494.7,543Z" fill="#00d5d5"/></g></g><g id="fe50a0df-ed2b-4def-aae5-e6e1e61eb81d" data-name="Man"><path d="M457.6,551.3c-24.9,5.4-43,20.3-43,20.3s15.8-28.7,38.1-46.1,110.9-9.7,95.2,18.5S482.5,545.9,457.6,551.3Z" fill="#0a69bf"/><ellipse cx="524.4" cy="427.9" rx="54.7" ry="75.2" transform="translate(-83.7 130.8) rotate(-13.2)" fill="#0071bc"/><path d="M615.6,553.3c-14.1-1.5-87.1,28.1-86.7,40.1,2.1,48.7,5.5,134.9-18.8,131.4-91.6-17.8-92.7,18.8-104.9,30.4a32.5,32.5,0,0,0-.7,16.9c7.7,32.9,68.6,46.8,136,31,43.4-11.1,117.4-53.4,113.1-115.9S629.7,554.8,615.6,553.3Z" fill="#0085ff" opacity="0.73"/><path d="M405.2,755.2c12.2-11.6,13.3-48.2,104.9-30.4,24.3,3.5,20.9-82.7,18.8-131.4-.3-9.1,41.5-28.3,67.9-36.4-7.2-15.7-22.8-31.3-49.5-37.3-38.7-8.8-69.1,76.4-99.1,101s-60.6,31.6-60.6,31.6,39.2,9,76.2-.8S510,621.1,510,621.1s9.5,28.7-2.2,54.7c-4.9,11.1-31.8,3.9-65.1,19.4-45.4,21.1-43.3,67.3-43.3,67.3S400.8,759.4,405.2,755.2Z" fill="#0071bc"/><path d="M405.2,755.2c12.2-11.6,13.3-48.2,104.9-30.4,24.3,3.5,20.9-82.7,18.8-131.4-.3-9.1,41.5-28.3,67.9-36.4-7.2-15.7-22.8-31.3-49.5-37.3-38.7-8.8-69.1,76.4-99.1,101s-60.6,31.6-60.6,31.6,39.2,9,76.2-.8S510,621.1,510,621.1s9.5,28.7-2.2,54.7c-4.9,11.1-31.8,3.9-65.1,19.4-45.4,21.1-43.3,67.3-43.3,67.3S400.8,759.4,405.2,755.2Z" fill="#0071bc"/></g></g></svg>