<?xml version="1.0" encoding="utf-8"?>
<!-- Generator: Adobe Illustrator 24.3.0, SVG Export Plug-In . SVG Version: 6.00 Build 0)  -->
<svg version="1.1" id="Layer_1" xmlns="http://www.w3.org/2000/svg" xmlns:xlink="http://www.w3.org/1999/xlink" x="0px" y="0px"
	 viewBox="0 0 970 1080" style="enable-background:new 0 0 970 1080;" xml:space="preserve">
<style type="text/css">
	.st0{opacity:0.1;fill:#1D75BB;}
	.st1{fill:none;stroke:#74AAD5;stroke-miterlimit:10;}
	.st2{fill:none;stroke:#1D75BB;stroke-width:10;stroke-miterlimit:10;}
	.st3{fill:#1D75BB;}
	.st4{fill:#8CC63F;}
	.st5{fill:none;stroke:#8CC63F;stroke-width:4;stroke-miterlimit:10;}
</style>
<path class="st0" d="M895.2,606.5c-10.2-23.4-5.5-50.6,11.9-69.3c0.2-0.2,0.3-0.4,0.5-0.5c55.5-60.8-21.8-221.8-172.7-359.6
	S416.7-23.1,361.2,37.7c-15.6,17.1-20.7,42.2-16.6,72.5c5.1,37.1-22.6,70.5-60,72.4c-78.2,4-146.9,31.6-195.3,84.5
	C-42.1,411,26.2,687.4,242,884.4s497.1,240.1,628.5,96.2C952.8,890.5,956.7,748.5,895.2,606.5z"/>
<g>
	<g>
		<path class="st1" d="M610.7,464.2"/>
	</g>
</g>
<g>
	<g>
		<path class="st1" d="M455.2,443.8"/>
	</g>
</g>
<g>
	<circle class="st2" cx="392" cy="312.1" r="66.4"/>
	<circle class="st2" cx="590.3" cy="328.4" r="66.4"/>
	<circle class="st2" cx="749.6" cy="462.7" r="66.4"/>
	<g>
		
			<ellipse transform="matrix(2.843645e-02 -0.9996 0.9996 2.843645e-02 -168.9593 995.1061)" class="st3" cx="427.4" cy="584.5" rx="70.5" ry="51.2"/>
		<path class="st3" d="M298.3,576.9c0,0,12.5,44.6,26.6,68.3c14.2,23.7,56.4,66.5,56.4,66.5s-18.1,29.3-44.2,54.7
			c-26.1,25.3-67.3,50-67.3,50s37.3,5.3,71.1-6.8s67.3-43,67.3-43s-2.3,36.4-6.7,61.5c-4.4,25.2-14.7,72.5-14.7,72.5
			s43.6-48,61.1-95c17.5-47,14.9-96.3,14.9-96.3s35-21.8,55.4-50.3c20.5-28.5,35.4-69.7,35.4-69.7s-83.5,79.3-132,74.8
			C363.1,657.9,298.3,576.9,298.3,576.9z"/>
		<path class="st3" d="M298.3,576.9c0,0,8.4,37.6,24.8,65.2c16.4,27.7,58.3,69.5,58.3,69.5"/>
	</g>
	<g>
		
			<rect x="529.4" y="402.2" transform="matrix(-0.5703 0.8214 -0.8214 -0.5703 1180.6104 193.659)" class="st3" width="20.5" height="6.7"/>
		
			<rect x="513.2" y="425.5" transform="matrix(-0.5703 0.8214 -0.8214 -0.5703 1174.3413 243.557)" class="st3" width="20.5" height="6.7"/>
		
			<rect x="497.1" y="448.9" transform="matrix(-0.5703 0.8214 -0.8214 -0.5703 1168.0723 293.4549)" class="st3" width="20.5" height="6.7"/>
		
			<rect x="480.9" y="472.2" transform="matrix(-0.5703 0.8214 -0.8214 -0.5703 1161.8032 343.3528)" class="st3" width="20.5" height="6.7"/>
		
			<rect x="464.7" y="495.5" transform="matrix(-0.5703 0.8214 -0.8214 -0.5703 1155.5342 393.2507)" class="st3" width="20.5" height="6.7"/>
	</g>
	<g>
		
			<rect x="396.9" y="395.9" transform="matrix(0.1397 0.9902 -0.9902 0.1397 745.5505 -59.7112)" class="st3" width="20.5" height="6.7"/>
		
			<rect x="400.9" y="424" transform="matrix(0.1397 0.9902 -0.9902 0.1397 776.7851 -39.4654)" class="st3" width="20.5" height="6.7"/>
		
			<rect x="404.8" y="452.1" transform="matrix(0.1397 0.9902 -0.9902 0.1397 808.0196 -19.2197)" class="st3" width="20.5" height="6.7"/>
		
			<rect x="408.8" y="480.1" transform="matrix(0.1397 0.9902 -0.9902 0.1397 839.2542 1.026)" class="st3" width="20.5" height="6.7"/>
	</g>
	<g>
		<g>
			
				<rect x="652.2" y="492.6" transform="matrix(-0.9299 0.3679 -0.3679 -0.9299 1460.9169 713.5342)" class="st3" width="20.5" height="6.7"/>
			
				<rect x="625.8" y="503.1" transform="matrix(-0.9299 0.3679 -0.3679 -0.9299 1413.8317 743.3863)" class="st3" width="20.5" height="6.7"/>
			
				<rect x="599.4" y="513.5" transform="matrix(-0.9299 0.3679 -0.3679 -0.9299 1366.7465 773.2384)" class="st3" width="20.5" height="6.7"/>
			
				<rect x="573.1" y="523.9" transform="matrix(-0.9299 0.3679 -0.3679 -0.9299 1319.6613 803.0905)" class="st3" width="20.5" height="6.7"/>
		</g>
		<g>
			<path class="st3" d="M572.7,529"/>
			
				<rect x="546.8" y="535.5" transform="matrix(-0.9299 0.3679 -0.3679 -0.9299 1273.2388 835.0043)" class="st3" width="20.5" height="6.7"/>
			
				<rect x="520.4" y="545.9" transform="matrix(-0.9299 0.3679 -0.3679 -0.9299 1226.1536 864.8564)" class="st3" width="20.5" height="6.7"/>
			
				<rect x="494" y="556.4" transform="matrix(-0.9299 0.3679 -0.3679 -0.9299 1179.0684 894.7086)" class="st3" width="20.5" height="6.7"/>
		</g>
	</g>
	<path class="st4" d="M419.7,296.7l-10.1-1.4l0-0.1c0.8-5.7-3.1-10.9-8.8-11.7l-12.4-1.8c-5.7-0.8-10.9,3.1-11.7,8.8l0,0.1
		l-10.1-1.4c-5.7-0.8-10.9,3.1-11.7,8.8l-4.2,29.5c-0.8,5.7,3.1,10.9,8.8,11.7l53.1,7.6c5.7,0.8,10.9-3.1,11.7-8.8l4.2-29.5
		C429.2,302.8,425.3,297.5,419.7,296.7z M381.3,291.1c0.4-3.1,3.3-5.3,6.5-4.8l12.4,1.8c3.1,0.4,5.3,3.3,4.8,6.5l0,0.1l-23.8-3.4
		L381.3,291.1z M419.6,337.2c-0.4,3.1-3.3,5.3-6.5,4.8l-53.1-7.6c-3.1-0.4-5.3-3.3-4.8-6.5l4.2-29.5c0.4-3.1,3.3-5.3,6.5-4.8
		l10.1,1.4l32.9,4.7l10.1,1.4c3.1,0.4,5.3,3.3,4.8,6.5L419.6,337.2z"/>
	<g>
		<path class="st4" d="M628.2,307c-5.1-12.8-19.6-19.1-32.4-14c-6.8,2.7-11.8,8.1-14.2,14.4c-6.1-3-13.4-3.5-20.2-0.8
			c-12.8,5.1-19.1,19.6-14,32.4c3.8,9.6,12.9,15.6,22.6,15.8l0,0c0,0,0,0,0,0c1.2,0,2.3,0,3.5-0.2c6.1,0,19.1,1.3,31.1,10.9
			c2.2-15.3,10.8-25.1,15.3-29.2c0.9-0.7,1.8-1.5,2.7-2.3c0,0,0,0,0,0l0,0C629.4,327.2,632,316.6,628.2,307z M617,333.8L617,333.8
			C617,333.8,617,333.8,617,333.8c-0.7,0.7-1.4,1.3-2.2,1.9c-3.6,3.4-10.7,11.5-12.5,24c-9.9-7.9-20.6-9-25.6-9
			c-1,0.1-1.9,0.2-2.9,0.1c0,0,0,0,0,0l0,0c-8-0.2-15.5-5.1-18.6-13c-4.2-10.6,1-22.5,11.5-26.7c5.6-2.2,11.6-1.8,16.6,0.7
			c2-5.2,6.1-9.6,11.7-11.9c10.6-4.2,22.5,1,26.7,11.5C624.8,319.5,622.7,328.1,617,333.8z"/>
	</g>
	<polygon class="st5" points="790.6,452.6 761.1,451.8 761.9,422.3 739.6,421.7 738.7,451.2 709.2,450.3 708.6,472.7 738.1,473.5 
		737.2,503 759.6,503.7 760.5,474.2 790,475 	"/>
</g>
<g>
	
		<rect x="-942.1" y="-191.4" transform="matrix(-1.836970e-16 1 -1 -1.836970e-16 -1063.813 718.1848)" class="st3" width="102.2" height="37.2"/>
	
		<rect x="-942.1" y="-50.4" transform="matrix(-1.836970e-16 1 -1 -1.836970e-16 -922.8188 859.179)" class="st3" width="102.2" height="37.2"/>
	
		<rect x="-942.1" y="90.6" transform="matrix(-1.836970e-16 1 -1 -1.836970e-16 -781.8246 1000.1732)" class="st3" width="102.2" height="37.2"/>
	
		<rect x="-942.1" y="231.6" transform="matrix(-1.836970e-16 1 -1 -1.836970e-16 -640.8304 1141.1674)" class="st3" width="102.2" height="37.2"/>
	
		<rect x="-942.1" y="372.6" transform="matrix(-1.836970e-16 1 -1 -1.836970e-16 -499.8363 1282.1615)" class="st3" width="102.2" height="37.2"/>
	
		<rect x="-942.1" y="654.6" transform="matrix(-1.836970e-16 1 -1 -1.836970e-16 -217.8479 1564.1499)" class="st3" width="102.2" height="37.2"/>
	
		<rect x="-942.1" y="513.6" transform="matrix(-1.836970e-16 1 -1 -1.836970e-16 -358.8421 1423.1556)" class="st3" width="102.2" height="37.2"/>
	
		<rect x="-942.1" y="795.6" transform="matrix(-1.836970e-16 1 -1 -1.836970e-16 -76.8537 1705.144)" class="st3" width="102.2" height="37.2"/>
	
		<rect x="-942.1" y="936.6" transform="matrix(-1.836970e-16 1 -1 -1.836970e-16 64.1405 1846.1383)" class="st3" width="102.2" height="37.2"/>
	
		<rect x="-942.1" y="1077.6" transform="matrix(-1.836970e-16 1 -1 -1.836970e-16 205.1346 1987.1324)" class="st3" width="102.2" height="37.2"/>
</g>
<g>
	
		<rect x="-874.1" y="-50" transform="matrix(-7.488808e-07 1 -1 -7.488808e-07 -854.3434 791.5847)" class="st3" width="102.2" height="37.2"/>
	
		<rect x="-874.1" y="91" transform="matrix(-7.488808e-07 1 -1 -7.488808e-07 -713.3494 932.5792)" class="st3" width="102.2" height="37.2"/>
	
		<rect x="-874.1" y="232" transform="matrix(-7.488808e-07 1 -1 -7.488808e-07 -572.3553 1073.5735)" class="st3" width="102.2" height="37.2"/>
	
		<rect x="-874.1" y="373" transform="matrix(-7.488808e-07 1 -1 -7.488808e-07 -431.3612 1214.568)" class="st3" width="102.2" height="37.2"/>
	
		<rect x="-874.1" y="514" transform="matrix(-7.488808e-07 1 -1 -7.488808e-07 -290.3671 1355.5624)" class="st3" width="102.2" height="37.2"/>
	
		<rect x="-874.1" y="796" transform="matrix(-7.488808e-07 1 -1 -7.488808e-07 -8.379 1637.5511)" class="st3" width="102.2" height="37.2"/>
	
		<rect x="-874.1" y="655" transform="matrix(-7.488808e-07 1 -1 -7.488808e-07 -149.373 1496.5568)" class="st3" width="102.2" height="37.2"/>
	
		<rect x="-874.1" y="937" transform="matrix(-7.488808e-07 1 -1 -7.488808e-07 132.6151 1778.5455)" class="st3" width="102.2" height="37.2"/>
	
		<rect x="-874.1" y="1078" transform="matrix(-7.488808e-07 1 -1 -7.488808e-07 273.6092 1919.5399)" class="st3" width="102.2" height="37.2"/>
	
		<rect x="-874.1" y="1219" transform="matrix(-7.488808e-07 1 -1 -7.488808e-07 414.6033 2060.5344)" class="st3" width="102.2" height="37.2"/>
</g>
</svg>
