<?xml version="1.0" encoding="utf-8"?>
<!-- Generator: Adobe Illustrator 24.3.0, SVG Export Plug-In . SVG Version: 6.00 Build 0)  -->
<svg version="1.1" id="Layer_1" xmlns="http://www.w3.org/2000/svg" xmlns:xlink="http://www.w3.org/1999/xlink" x="0px" y="0px"
	 viewBox="0 0 1817.8 1664.7" style="enable-background:new 0 0 1817.8 1664.7;" xml:space="preserve">
<style type="text/css">
	.st0{opacity:4.000000e-02;fill:#1D75BB;}
	.st1{fill:none;stroke:#74AAD5;stroke-miterlimit:10;}
	.st2{fill:none;stroke:#1D75BB;stroke-width:10;stroke-miterlimit:10;}
	.st3{fill:#1D75BB;}
	.st4{fill:#8CC63F;}
	.st5{fill:none;stroke:#8CC63F;stroke-width:10;stroke-miterlimit:10;}
</style>
<path class="st0" d="M1540.7,991.9c-34.4-27.1-49.2-62.6-37.5-90.6c0.1-0.3,0.2-0.5,0.3-0.8c36.1-90.9-212.1-274.8-554.4-410.8
	s-649-172.5-685.1-81.6c-10.2,25.6,2.2,58.6,33,95.9c37.6,45.6,22.1,94.9-33.6,106.7C146.6,635.5,63.6,687.8,32.1,767
	c-85.5,215.1,242,547.1,731.3,741.5s955.3,177.6,1040.8-37.5C1857.7,1336.3,1749.3,1155.8,1540.7,991.9z"/>
<circle class="st2" cx="752.8" cy="150.3" r="132.5"/>
<circle class="st2" cx="1148.3" cy="182.7" r="132.5"/>
<circle class="st2" cx="1465.9" cy="450.5" r="132.5"/>
<g>
	
		<ellipse transform="matrix(2.843645e-02 -0.9996 0.9996 2.843645e-02 107.0103 1496.7788)" class="st3" cx="823.5" cy="693.3" rx="140.6" ry="102.2"/>
	<path class="st3" d="M566,678.3c0,0,24.9,88.9,53.1,136.2c28.2,47.3,112.6,132.6,112.6,132.6s-36.2,58.5-88.2,109
		s-134.3,99.7-134.3,99.7s74.4,10.6,141.9-13.5s134.3-85.8,134.3-85.8s-4.6,72.5-13.4,122.7c-8.7,50.2-29.4,144.6-29.4,144.6
		s86.9-95.7,121.9-189.5c35-93.8,29.7-192,29.7-192s69.7-43.5,110.5-100.3s70.5-139,70.5-139S908.7,861.1,812.1,852.1
		C695.1,839.7,566,678.3,566,678.3z"/>
	<path class="st3" d="M566,678.3c0,0,16.7,74.9,49.4,130.1s116.3,138.7,116.3,138.7"/>
</g>
<g>
	
		<rect x="1026.9" y="330" transform="matrix(-0.5703 0.8214 -0.8214 -0.5703 1921.12 -331.5221)" class="st3" width="40.8" height="13.4"/>
	
		<rect x="994.6" y="376.4" transform="matrix(-0.5703 0.8214 -0.8214 -0.5703 1908.6196 -232.0266)" class="st3" width="40.8" height="13.4"/>
	
		<rect x="962.3" y="422.9" transform="matrix(-0.5703 0.8214 -0.8214 -0.5703 1896.1193 -132.531)" class="st3" width="40.8" height="13.4"/>
	
		<rect x="930" y="469.4" transform="matrix(-0.5703 0.8214 -0.8214 -0.5703 1883.6189 -33.0355)" class="st3" width="40.8" height="13.4"/>
	
		<rect x="897.8" y="515.9" transform="matrix(-0.5703 0.8214 -0.8214 -0.5703 1871.1185 66.46)" class="st3" width="40.8" height="13.4"/>
</g>
<g>
	
		<rect x="762.6" y="317.2" transform="matrix(0.1397 0.9902 -0.9902 0.1397 994.39 -496.6598)" class="st3" width="40.8" height="13.4"/>
	
		<rect x="770.5" y="373.3" transform="matrix(0.1397 0.9902 -0.9902 0.1397 1056.671 -456.2903)" class="st3" width="40.8" height="13.4"/>
	
		<rect x="778.4" y="429.3" transform="matrix(0.1397 0.9902 -0.9902 0.1397 1118.9521 -415.9207)" class="st3" width="40.8" height="13.4"/>
	
		<rect x="786.3" y="485.3" transform="matrix(0.1397 0.9902 -0.9902 0.1397 1181.2332 -375.5511)" class="st3" width="40.8" height="13.4"/>
</g>
<g>
	<g>
		
			<rect x="1271.7" y="510.2" transform="matrix(-0.9299 0.3679 -0.3679 -0.9299 2683.8076 522.3033)" class="st3" width="40.8" height="13.4"/>
		
			<rect x="1219.1" y="531" transform="matrix(-0.9299 0.3679 -0.3679 -0.9299 2589.9207 581.8279)" class="st3" width="40.8" height="13.4"/>
		
			<rect x="1166.5" y="551.8" transform="matrix(-0.9299 0.3679 -0.3679 -0.9299 2496.0334 641.3525)" class="st3" width="40.8" height="13.4"/>
		
			<rect x="1113.9" y="572.7" transform="matrix(-0.9299 0.3679 -0.3679 -0.9299 2402.1465 700.8771)" class="st3" width="40.8" height="13.4"/>
	</g>
	<g>
		
			<rect x="1061.5" y="595.6" transform="matrix(-0.9299 0.3679 -0.3679 -0.9299 2309.5811 764.5125)" class="st3" width="40.8" height="13.4"/>
		
			<rect x="1008.9" y="616.5" transform="matrix(-0.9299 0.3679 -0.3679 -0.9299 2215.6938 824.037)" class="st3" width="40.8" height="13.4"/>
		
			<rect x="956.3" y="637.3" transform="matrix(-0.9299 0.3679 -0.3679 -0.9299 2121.8069 883.5616)" class="st3" width="40.8" height="13.4"/>
	</g>
</g>
<polygon class="st5" points="1547.6,430.5 1488.8,428.8 1490.5,370 1445.9,368.7 1444.2,427.5 1385.4,425.9 1384.1,470.5 
	1442.9,472.2 1441.2,531 1485.9,532.3 1487.5,473.4 1546.4,475.1 "/>
<path class="st5" d="M752.8,65c0,0-23.5,22.9-70,26.8c11.4,81.6,70,144,70,144s58.6-62.4,70-144C776.2,87.9,752.8,65,752.8,65z"/>
<g>
	<path class="st5" d="M1114.4,225.7c-14.7-14.8-29.9-30-44.5-44.6c30.8-30.8,61.8-61.9,92.3-92.5c14.5,14.6,29.8,30,44.5,44.7
		C1176.7,163.4,1145.6,194.4,1114.4,225.7z"/>
	<path class="st4" d="M1225.5,250.5c-3.4,0-6.4,0-10.4,0c0-12.4,0-24.7,0-38.2c-6.5,0-12.2-0.4-17.7,0.1c-8.6,0.9-15.5-1.1-21.1-8.3
		c-1.4-1.8-5.5-2-8.4-2.2c-5.2-0.3-10.4-0.1-15.6-0.1c10.2-10.2,19.6-19.6,29.8-29.7c0.1,4.5,0.8,9.9,0.2,15.1
		c-0.8,6.2,3.9,13.5,10.3,13.8c7,0.3,14,0.1,21.9,0.1c0-12.8,0-25.1,0-38c4.1,0,7.3,0,11,0C1225.5,192.1,1225.5,220.8,1225.5,250.5z
		"/>
	<path class="st5" d="M1067.1,202c3.7-3.9,7.7-8,11.2-11.6c9.1,9.1,17.8,17.9,26.8,26.9c-3.6,3.3-7.9,7.3-11.9,11
		C1085,220.1,1076.3,211.3,1067.1,202z"/>
</g>
</svg>
