<svg xmlns="http://www.w3.org/2000/svg" viewBox="0 0 494.47 78.59">
  <defs>
    <style>
      .cls-1 {
        fill: #fff;
      }

      .cls-2 {
        stroke: #000;
        stroke-miterlimit: 10;
      }
    </style>
  </defs>
  <g id="Layer_2" data-name="Layer 2">
    <g id="Layer_1-2" data-name="Layer 1">
      <g id="Vector_Smart_Object" data-name="Vector Smart Object">
        <g>
          <rect class="cls-1" x="66.57" width="427.9" height="78.59"/>
          <polygon class="cls-1" points="0 10.29 0 24.05 44.25 24.05 44.25 32.42 0 32.42 0 68.3 58 68.3 58 54.55 13.75 54.55 13.75 46.17 58 46.17 58 10.29 0 10.29"/>
          <g>
            <path class="cls-2" d="M124.92,34.41a7.43,7.43,0,0,1-.6,3.12,8.65,8.65,0,0,1,2.33,5.79v9.46a8.43,8.43,0,0,1-8.37,8.49H83.59V17.32h33a8.43,8.43,0,0,1,8.32,8.49Zm-33-9a.41.41,0,0,0-.42.43v8.6a.41.41,0,0,0,.42.43h24.7a.4.4,0,0,0,.36-.43v-8.6a.4.4,0,0,0-.36-.43Zm26.8,17.94c0-.24-.18-.36-.42-.36H91.9c-.24,0-.42.12-.42.36v9.46a.41.41,0,0,0,.42.43h26.38a.41.41,0,0,0,.42-.43Z"/>
            <path class="cls-2" d="M176.37,17.32,156.45,44.85V61.27h-7.9V44.85c-6.28-8.73-13.7-18.8-19.92-27.53H138L152.5,36l14.42-18.68Z"/>
            <polygon class="cls-2" points="220.1 17.32 220.1 25.38 202.57 25.38 202.57 61.27 194.62 61.27 194.62 25.38 177.03 25.38 177.03 17.32 220.1 17.32"/>
            <polygon class="cls-2" points="264.31 25.38 232.67 25.38 232.67 35.27 258.15 35.27 258.15 43.32 232.67 43.32 232.67 53.21 264.31 53.21 264.31 61.27 224.71 61.27 224.71 17.32 264.31 17.32 264.31 25.38"/>
            <path class="cls-2" d="M335.26,17.32l-15.67,44h-6.23L302.18,30.08c-3.65,10.25-7.6,21-11.19,31.19h-6.16L269.16,17.32h8.37l10.41,29,10.41-29h7.72l10.41,29,10.4-29Z"/>
            <path class="cls-2" d="M373.19,17.32a8.44,8.44,0,0,1,8.37,8.49V61.27h-7.95V46.5H346.39V61.27h-7.9V25.81a8.39,8.39,0,0,1,8.32-8.49Zm.42,21.12V25.81a.41.41,0,0,0-.42-.43H346.81a.41.41,0,0,0-.42.43V38.44Z"/>
            <path class="cls-2" d="M431.4,37.71A8.47,8.47,0,0,1,423,46.19h-2.33l10.71,13v2.08h-8.62L410.34,46.19H396.22V61.27h-7.89V17.38H423a8.48,8.48,0,0,1,8.38,8.49Zm-8.38.42a.41.41,0,0,0,.42-.42V25.87a.41.41,0,0,0-.42-.43H396.64a.41.41,0,0,0-.42.43V37.71a.41.41,0,0,0,.42.42Z"/>
            <polygon class="cls-2" points="477.46 25.38 445.82 25.38 445.82 35.27 471.3 35.27 471.3 43.32 445.82 43.32 445.82 53.21 477.46 53.21 477.46 61.27 437.86 61.27 437.86 17.32 477.46 17.32 477.46 25.38"/>
          </g>
        </g>
      </g>
    </g>
  </g>
</svg>
