<svg xmlns="http://www.w3.org/2000/svg" viewBox="0 0 212.32 212.32">
  <g id="Layer_2" data-name="Layer 2">
    <g id="Mail_Icon" data-name="Mail Icon">
      <g>
        <path d="M46.47,95.89v20.54l15.34-10.28Z"/>
        <path d="M128.12,106.15C121,101.35,114,96.69,107,92.1a2,2,0,0,0-1.76,0c-7,4.59-13.91,9.25-21.1,14.06,7.19,4.81,14.11,9.47,21.11,14a2.65,2.65,0,0,0,2.25-.31c5.75-3.76,11.43-7.6,17.14-11.41Z"/>
        <path d="M51.9,84.55c6.72,4.51,13.43,9,20.2,13.46a2.63,2.63,0,0,0,2.25-.28c8.06-5.31,16.06-10.72,24.12-16a2.93,2.93,0,0,0,1.47-2.82c0-8.3,0-16.6,0-24.9,0-.63-.08-1.25-.14-2.18L51.43,84A2.76,2.76,0,0,0,51.9,84.55Z"/>
        <path d="M113.44,81.34Q125.86,89.73,138.37,98a2,2,0,0,0,1.74.1c6.93-4.56,13.81-9.19,21-14L112.41,51.7c0,9.7,0,18.88,0,28.06A2.33,2.33,0,0,0,113.44,81.34Z"/>
        <path d="M98.53,130.75c-8.06-5.44-16.16-10.82-24.21-16.27a2,2,0,0,0-2.68,0c-6.3,4.28-12.64,8.49-19,12.73-.42.27-.78.62-1.29,1l48.53,32.35c0-9.72,0-18.9-.06-28.08C99.85,131.93,99.12,131.15,98.53,130.75Z"/>
        <path d="M106.16,0A106.16,106.16,0,1,0,212.32,106.16,106.16,106.16,0,0,0,106.16,0ZM178.5,106.25c0,6.94-.06,13.87,0,20.81a7.61,7.61,0,0,1-3.74,7q-32.21,21.38-64.33,42.85c-3.26,2.17-5.34,2.16-8.63,0Q69.66,155.41,37.48,134a7.62,7.62,0,0,1-3.68-7q.08-20.8,0-41.63a7.83,7.83,0,0,1,3.83-7.13q32-21.24,64-42.61c3.61-2.4,5.48-2.39,9.13,0q32,21.32,64,42.61a7.76,7.76,0,0,1,3.76,7.16C178.43,92.37,178.5,99.31,178.5,106.25Z"/>
        <path d="M138,114.57c-8.06,5.32-16.06,10.72-24.12,16a2.92,2.92,0,0,0-1.51,2.8c.06,8.37,0,16.74,0,25.11,0,.56.09,1.12.17,2l48.49-32.32c-7.18-4.8-14.06-9.43-21-14A2.43,2.43,0,0,0,138,114.57Z"/>
        <path d="M165.92,116.46V95.85l-15.41,10.31Z"/>
      </g>
    </g>
  </g>
</svg>
