<?xml version="1.0" encoding="utf-8"?>
<!-- Generator: Adobe Illustrator 24.3.0, SVG Export Plug-In . SVG Version: 6.00 Build 0)  -->
<svg version="1.1" id="Layer_1" xmlns="http://www.w3.org/2000/svg" xmlns:xlink="http://www.w3.org/1999/xlink" x="0px" y="0px"
	 viewBox="0 0 808 466.8" style="enable-background:new 0 0 808 466.8;" xml:space="preserve">
<style type="text/css">
	.st0{fill:#FFFFFF;}
</style>
<g>
	<g>
		<path class="st0" d="M149.7,63.7c0,21.7-14.5,40.7-35.4,46.5V95c0-3.7-1.6-7.3-4.4-9.7c15.2-2,22.8-9.6,22.7-21.6
			c0.1-5.6-1.9-11.1-5.5-15.4c0.6-1.8,0.9-3.6,0.9-5.5c0-3-0.9-6.7-2.2-7.4c-1.4-0.7-10,2.4-13,4.7c-3.8-0.9-7.6-1.3-11.5-1.3
			c-3.8,0-7.7,0.4-11.4,1.3c-3-2.3-11.7-5.5-13-4.8s-2.2,4.4-2.2,7.4c0,1.9,0.4,3.8,1,5.5l0,0c-3.6,4.3-5.5,9.8-5.5,15.4
			c-0.2,12.1,7.6,19.7,23,21.6c-1.8,1.5-3.2,3.6-3.9,5.9c-2.6,1-9.2,2.8-13.5-3.6c-1.1-1.6-6.1-6.6-9.4-4.8c-0.5,0.3-1,1,0.6,1.9
			c8.6,6.1,4.1,13.1,16,13.9c2,0,4.2-0.2,5.8-0.4v11.9C63.1,103.1,48,76.6,55.1,51s33.6-40.7,59.2-33.6
			C135.2,23.1,149.6,42.1,149.7,63.7"/>
	</g>
	<g>
		<path class="st0" d="M359.8,14.9h-48.1c-13,0-23.6,10.6-23.6,23.6v48.1c0,13,10.6,23.6,23.6,23.6h48.1c13,0,23.6-10.6,23.6-23.6
			V38.5C383.4,25.5,372.8,14.9,359.8,14.9 M345.1,97.4V86.2c0-2.7-1.2-5.3-3.3-7.1c11.2-1.5,16.8-7,16.7-15.9c0-4.1-1.4-8.1-4-11.3
			c0.5-1.3,0.7-2.6,0.7-4c0-2.2-0.6-4.9-1.6-5.5c-1-0.5-7.3,1.8-9.6,3.5c-5.6-1.2-11.3-1.2-16.9,0c-2.2-1.7-8.6-4.1-9.6-3.5
			s-1.6,3.2-1.6,5.4c0,1.4,0.2,2.8,0.7,4.1l0,0c-2.6,3.2-4,7.2-4,11.4c-0.1,8.9,5.6,14.5,16.9,15.9c-1.3,1.1-2.3,2.6-2.8,4.3
			c-1.9,0.8-6.8,2.1-9.9-2.6c-0.8-1.2-4.5-4.9-6.9-3.6c-0.4,0.2-0.7,0.7,0.4,1.4c6.3,4.5,3,9.6,11.7,10.2c1.4,0,2.8-0.1,4.2-0.3v8.8
			c-18.9-5.2-29.9-24.7-24.7-43.6s24.7-29.9,43.6-24.7s29.9,24.7,24.7,43.6C366.5,84.8,357.2,94.2,345.1,97.4"/>
	</g>
	<g>
		<path class="st0" d="M234.1,77.3c18.7-2.5,28.2-11.8,28-26.6c0.1-6.9-2.3-13.7-6.8-19c0.8-2.2,1.1-4.5,1.1-6.8
			c0-3.7-1.1-8.2-2.8-9.1s-12.3,3-16,5.8c-9.3-2.1-19-2.1-28.3,0c-3.7-2.8-14.4-6.8-16.1-5.9s-2.8,5.5-2.8,9.1
			c0,2.3,0.4,4.6,1.2,6.8l0,0c-4.4,5.3-6.8,12.1-6.8,19c-0.2,15,9.4,24.3,28.4,26.7c-2.2,1.9-3.8,4.4-4.7,7.2
			c-3.2,1.3-11.3,3.5-16.6-4.4c-1.3-2-7.5-8.1-11.6-6c-0.6,0.4-1.2,1.2,0.7,2.4c10.6,7.5,5,16.2,19.7,17.1c2.4,0,4.7-0.2,7.1-0.5
			V108c10.3,2.9,21.3,2.9,31.6,0V89.3C239.5,84.7,237.6,80.3,234.1,77.3"/>
	</g>
	<g>
		<path class="st0" d="M604,38.4c0,3.2-2.6,5.8-5.8,5.8c-3.2,0-5.8-2.6-5.8-5.8c0-3.2,2.6-5.8,5.8-5.8c0,0,0,0,0,0
			C601.4,32.6,604,35.2,604,38.4"/>
		<g>
			<path class="st0" d="M572.3,38.5c-13.4,0-24.2,10.8-24.2,24.2s10.8,24.2,24.2,24.2s24.2-10.8,24.2-24.2l0,0
				C596.5,49.3,585.6,38.5,572.3,38.5 M572.3,78.7c-8.9,0-16.1-7.2-16.1-16.1c0-8.9,7.2-16.1,16.1-16.1c8.9,0,16.1,7.2,16.1,16.1
				c0,0,0,0,0,0C588.3,71.5,581.2,78.7,572.3,78.7"/>
			<path class="st0" d="M592.6,19.1H552c-12.8,0-23.2,10.4-23.2,23.2V83c0,12.8,10.4,23.2,23.2,23.2h40.6
				c12.8,0,23.2-10.4,23.2-23.2V42.3C615.8,29.5,605.4,19.1,592.6,19.1 M611.7,83c0,10.6-8.6,19.1-19.2,19.1H552
				c-10.6,0-19.1-8.6-19.1-19.1V42.3c0-10.6,8.6-19.1,19.1-19.2h40.6c10.6,0,19.1,8.6,19.2,19.2V83z"/>
			<path class="st0" d="M592.6,15.1H552c-15,0-27.2,12.2-27.3,27.3V83c0,15,12.2,27.2,27.3,27.3h40.6c15.1,0,27.3-12.2,27.3-27.3
				V42.3C619.8,27.3,607.6,15.1,592.6,15.1 M611.7,83c0,10.6-8.6,19.1-19.2,19.1H552c-10.6,0-19.1-8.6-19.1-19.1V42.3
				c0-10.6,8.6-19.1,19.1-19.2h40.6c10.6,0,19.1,8.6,19.2,19.2V83z"/>
			<path class="st0" d="M572.3,42.5c-11.1,0-20.1,9-20.1,20.1c0,11.1,9,20.1,20.1,20.1c11.1,0,20.1-9,20.1-20.1
				C592.4,51.5,583.4,42.5,572.3,42.5 M572.3,78.7c-8.9,0-16.1-7.2-16.1-16.1c0-8.9,7.2-16.1,16.1-16.1c8.9,0,16.1,7.2,16.1,16.1
				c0,0,0,0,0,0C588.4,71.5,581.2,78.7,572.3,78.7"/>
			<path class="st0" d="M572.3,38.5c-13.4,0-24.2,10.8-24.2,24.2s10.8,24.2,24.2,24.2s24.2-10.8,24.2-24.2l0,0
				C596.5,49.3,585.6,38.5,572.3,38.5 M572.3,78.7c-8.9,0-16.1-7.2-16.1-16.1c0-8.9,7.2-16.1,16.1-16.1c8.9,0,16.1,7.2,16.1,16.1
				c0,0,0,0,0,0C588.3,71.5,581.2,78.7,572.3,78.7"/>
		</g>
		<path class="st0" d="M604,38.4c0,3.2-2.6,5.8-5.8,5.8c-3.2,0-5.8-2.6-5.8-5.8c0-3.2,2.6-5.8,5.8-5.8c0,0,0,0,0,0
			C601.4,32.6,604,35.2,604,38.4"/>
	</g>
	<g>
		<path class="st0" d="M692.3,49.7c-6.6,0-12,5.4-12,12s5.4,12,12,12c6.6,0,12-5.4,12-12S698.9,49.7,692.3,49.7"/>
		<path class="st0" d="M707.5,32.2h-30.3c-7.9,0-14.3,6.4-14.3,14.3v30.3c0,7.9,6.4,14.3,14.3,14.3h30.3c7.9,0,14.3-6.4,14.3-14.3
			V46.5C721.8,38.6,715.4,32.2,707.5,32.2 M692.3,79.7c-10,0-18.1-8.1-18.1-18.1s8.1-18.1,18.1-18.1c10,0,18.1,8.1,18.1,18.1l0,0
			C710.4,71.6,702.3,79.7,692.3,79.7 M711.7,47.8c-2.4,0-4.3-1.9-4.3-4.3c0-2.4,1.9-4.3,4.3-4.3c2.4,0,4.3,1.9,4.3,4.3c0,0,0,0,0,0
			C716.1,45.9,714.1,47.8,711.7,47.8C711.7,47.8,711.7,47.8,711.7,47.8"/>
		<path class="st0" d="M722.1,13h-59.7c-10.4,0-18.8,8.4-18.8,18.8v59.7c0,10.4,8.4,18.8,18.8,18.8h59.7c10.4,0,18.8-8.4,18.8-18.8
			V31.8C741,21.4,732.5,13,722.1,13C722.1,13,722.1,13,722.1,13 M727.8,76.8c0,11.2-9.1,20.3-20.4,20.4h-30.3
			c-11.2,0-20.3-9.1-20.4-20.4V46.5c0-11.2,9.1-20.3,20.4-20.4h30.3c11.2,0,20.4,9.1,20.4,20.4L727.8,76.8z"/>
	</g>
	<g>
		<path class="st0" d="M467.1,36.3h-26.1c-6.8,0-12.3,5.5-12.3,12.3v26.1c0,6.8,5.5,12.3,12.3,12.3h26.1c6.8,0,12.3-5.5,12.3-12.3
			V48.6C479.4,41.8,473.9,36.3,467.1,36.3 M454,77.2c-8.6,0-15.6-6.9-15.6-15.5s6.9-15.6,15.5-15.6s15.6,6.9,15.6,15.5c0,0,0,0,0,0
			C469.5,70.2,462.5,77.2,454,77.2 M470.6,49.8c-2.1,0-3.7-1.7-3.8-3.7s1.7-3.7,3.7-3.7c2.1,0,3.7,1.7,3.8,3.7c0,0,0,0,0,0
			C474.4,48.1,472.7,49.8,470.6,49.8"/>
		<path class="st0" d="M454,13.2c-26.7,0-48.4,21.7-48.4,48.4s21.7,48.4,48.4,48.4c26.7,0,48.4-21.7,48.4-48.4S480.7,13.2,454,13.2
			 M484.6,74.7c0,9.7-7.9,17.5-17.5,17.5h-26.1c-9.7,0-17.5-7.9-17.5-17.5V48.6c0-9.7,7.8-17.5,17.5-17.5h26.1
			c9.7,0,17.5,7.9,17.5,17.5V74.7z"/>
		<path class="st0" d="M454,51.3c-5.7,0-10.3,4.6-10.3,10.3c0,5.7,4.6,10.3,10.3,10.3s10.3-4.6,10.3-10.3
			C464.3,56,459.7,51.3,454,51.3"/>
	</g>
</g>
<g>
	<g>
		<path class="st0" d="M618.8,150.8c-1.1-4.2-4.4-7.4-8.6-8.6c-7.6-2-37.9-2-37.9-2s-30.4,0-37.9,2c-4.2,1.1-7.4,4.4-8.6,8.6
			c-2,7.6-2,23.4-2,23.4s0,15.8,2,23.4c1.1,4.2,4.4,7.5,8.6,8.6c7.6,2,37.9,2,37.9,2s30.4,0,37.9-2c4.2-1.1,7.5-4.4,8.6-8.6
			c2-7.6,2-23.4,2-23.4S620.8,158.4,618.8,150.8 M562.4,188.8v-29.1l25.2,14.6L562.4,188.8z"/>
	</g>
	<g>
		<polygon class="st0" points="685.3,183.6 703.1,173.4 685.3,163.1 		"/>
		<path class="st0" d="M718.2,125.5h-51.7c-12.6,0-22.8,10.2-22.8,22.8c0,0,0,0,0,0.1v51.7c0,12.6,10.2,22.8,22.8,22.8c0,0,0,0,0,0
			h51.7c12.6,0,22.8-10.2,22.8-22.8c0,0,0,0,0,0v-51.7C741,135.8,730.8,125.6,718.2,125.5L718.2,125.5 M725.2,189.9
			c-0.8,3-3.1,5.3-6.1,6.1c-5.4,1.4-26.8,1.4-26.8,1.4s-21.4,0-26.8-1.4c-3-0.8-5.3-3.1-6.1-6.1c-1.4-5.4-1.4-16.5-1.4-16.5
			s0-11.1,1.4-16.5c0.8-3,3.1-5.3,6.1-6.1c5.4-1.4,26.8-1.4,26.8-1.4s21.4,0,26.8,1.4c3,0.8,5.3,3.1,6.1,6.1
			c1.4,5.3,1.4,16.5,1.4,16.5S726.6,184.5,725.2,189.9"/>
	</g>
	<g>
		<polygon class="st0" points="447.7,183.5 463.8,174.2 447.7,164.9 		"/>
		<path class="st0" d="M454,125.5c-26.9,0-48.7,21.8-48.7,48.7c0,26.9,21.8,48.7,48.7,48.7s48.7-21.8,48.7-48.7c0,0,0,0,0,0
			C502.7,147.3,480.9,125.5,454,125.5 M483.7,189.1c-0.7,2.7-2.8,4.8-5.5,5.5c-4.8,1.3-24.2,1.3-24.2,1.3s-19.4,0-24.2-1.3
			c-2.7-0.7-4.8-2.8-5.5-5.5c-1.3-4.8-1.3-14.9-1.3-14.9s0-10.1,1.3-14.9c0.7-2.7,2.8-4.8,5.5-5.5c4.8-1.3,24.2-1.3,24.2-1.3
			s19.4,0,24.2,1.3c2.7,0.7,4.8,2.8,5.5,5.5c1.3,4.8,1.3,14.9,1.3,14.9S485,184.3,483.7,189.1"/>
	</g>
	<g>
		<path class="st0" d="M360.9,127h-50.4c-12.2,0-22,9.8-22,21.9c0,0,0,0,0,0.1v50.4c-0.1,12.2,9.7,22,21.9,22.1c0.1,0,0.1,0,0.2,0
			h26.9v-34.1h-13v-15.2h13v-6.3c0-16,7.8-23.1,21.1-23.1c3.1-0.1,6.2,0.1,9.3,0.7v13.2h-8.1c-3.6,0-6.5,2.9-6.5,6.5l0,0v9h13.8
			l-2.3,15.3l-11.6-0.2v34.1h7.7c12.2,0,22-9.8,22-22c0,0,0,0,0-0.1V149C382.9,136.9,373,127,360.9,127"/>
	</g>
	<g>
		<path class="st0" d="M210.3,154.4v7.7h-15.9v18.5h15.8v41.6h19.2v-41.6l14.2,0.2l2.8-18.7h-16.8v-9.2v-1.7c0-4.4,3.6-7.9,7.9-7.9
			h9.9v-16.1c-3.7-0.7-7.5-1-11.4-0.8C219.9,126.3,210.3,134.8,210.3,154.4"/>
		<path class="st0" d="M210.3,154.4v7.7h-15.9v18.5h15.8v41.6h19.2v-41.6l14.2,0.2l2.8-18.7h-16.8v-9.2v-1.7c0-4.4,3.6-7.9,7.9-7.9
			h9.9v-16.1c-3.7-0.7-7.5-1-11.4-0.8C219.9,126.3,210.3,134.8,210.3,154.4"/>
	</g>
	<g>
		<path class="st0" d="M98.1,126.2c-26.6,0-48.2,21.5-48.3,48.1c0,23.9,17.4,44.2,41.1,47.7v-34.9H78.9v-12.7h11.9v-8.4
			c0-14,6.8-20.1,18.4-20.1c3.3,0,6.6,0.2,9.9,0.6v11.1h-7.9c-4.9,0-6.7,4.7-6.7,9.9v6.9H119l-2,12.7h-12.4v35
			c26.4-3.6,44.8-27.9,41.2-54.3C142.5,144,122.1,126.3,98.1,126.2"/>
	</g>
</g>
<g>
	<path class="st0" d="M404,350.3c-27.1,0-49,21.9-49,49s21.9,49,49,49s49-21.9,49-49S431.1,350.3,404,350.3L404,350.3z M429.1,386.4
		c0,0.6,0,1.1,0,1.7c0,17.2-13,36.9-36.9,36.9c-7.1,0-14-2-19.9-5.8c6.9,0.8,13.8-1.1,19.3-5.4c-5.6-0.1-10.4-3.7-12.1-9
		c0.8,0.2,1.6,0.2,2.4,0.2c1.2,0,2.3-0.2,3.4-0.5c-6.1-1.2-10.4-6.6-10.4-12.8v-0.2c1.8,1,3.8,1.6,5.9,1.6c-5.7-3.8-7.4-11.4-4-17.3
		c6.6,8.1,16.3,13,26.8,13.6c-1.6-7,2.7-14,9.7-15.6c1-0.2,1.9-0.3,2.9-0.3c3.6,0,7,1.5,9.5,4.1c2.9-0.6,5.7-1.6,8.2-3.1
		c-1,3-3,5.6-5.7,7.2c2.6-0.3,5.1-1,7.5-2C433.9,382.4,431.7,384.6,429.1,386.4z"/>
</g>
<g>
	<g>
		<path class="st0" d="M364.4,335.8h-57.8c-0.1-0.1-0.2-0.1-0.3-0.1c-0.9-0.1-1.9-0.2-2.8-0.5c-6-1.4-11.1-5.3-14-10.8
			c-1.4-2.6-2.2-5.5-2.4-8.4c0-0.2,0-0.4-0.2-0.6v-56.3c0.1-0.2,0.2-0.5,0.2-0.8c0-0.8,0.1-1.5,0.3-2.3
			c1.8-10.2,10.7-17.6,21.1-17.6c18.2,0,36.3,0,54.5,0c1.5,0,3,0.2,4.5,0.5c7.9,1.7,14.2,7.7,16.2,15.6c0.3,1,0.5,2.1,0.5,3.1
			c0,0.1,0,0.2,0.1,0.3v58.4c-0.1,0.1-0.1,0.3-0.1,0.4c0,0.2,0,0.4,0,0.6c-0.2,1.2-0.4,2.3-0.8,3.4
			C380.9,329.3,373.3,335.3,364.4,335.8 M315.1,275.7L315.1,275.7h-0.2c-0.9-0.2-1.9-0.3-2.9-0.1c-1.3,0.2-2.4,0.7-3.4,1.6
			c-1.7,1.6-2.3,4.1-1.5,6.3c0.3,0.8,0.8,1.6,1.4,2.3c0.6,0.7,1.3,1.3,2.1,1.8l2.7,1.8c0.2,0.1,0.3,0.3,0.5,0.4
			c0.2,0.1,0.2,0.4,0.2,0.6c0,0.2-0.1,0.5-0.2,0.7c-0.1,0.2-0.2,0.4-0.3,0.6c-0.8,1.5-1.8,2.9-3,4.1c-1.7,1.7-3.6,3.1-5.7,4.1
			c-0.5,0.3-1.1,0.6-1.6,0.9c-0.5,0.3-0.9,0.6-1.3,1c-1.1,1.1-1.5,2.6-1,4.1c0.2,0.7,0.6,1.3,1.1,1.9c0.6,0.6,1.2,1.2,2,1.6
			c1.3,0.7,2.6,1.3,4,1.7l0.9,0.3c0.4,0.1,0.6,0.4,0.8,0.7l0.2,0.6c0.5,1.3,1.5,2.3,2.7,2.8c0.6,0.2,1.2,0.4,1.9,0.5
			c0.9,0.1,1.9,0.1,2.8,0.2c0.9,0,1.8,0.1,2.7,0.3c1.2,0.2,2.4,0.6,3.5,1.3l1,0.6c0.7,0.4,1.4,0.9,2.2,1.3c2.4,1.3,5,2,7.7,2.2
			c1.1,0.1,2.2,0.1,3.3,0c1.7-0.1,3.4-0.5,5-1.2c1.4-0.5,2.7-1.2,3.9-2l1.8-1.1c0.4-0.2,0.8-0.4,1.2-0.6c1.1-0.4,2.1-0.6,3.3-0.7
			c1-0.1,2-0.1,3-0.2c0.6,0,1.1-0.1,1.7-0.2c1.9-0.3,3.5-1.6,4.1-3.4c0.1-0.2,0.1-0.4,0.2-0.5c0.1-0.3,0.3-0.5,0.6-0.6
			c0.2-0.1,0.4-0.2,0.7-0.3c1.1-0.3,2.2-0.7,3.2-1.2c0.7-0.3,1.4-0.7,2-1.2c0.7-0.5,1.3-1.2,1.8-2c1-1.8,0.6-4-1-5.2
			c-0.3-0.3-0.6-0.5-1-0.7c-0.4-0.2-0.8-0.5-1.3-0.7c-0.9-0.4-1.7-0.9-2.6-1.5c-1.9-1.2-3.5-2.7-4.9-4.4c-0.7-0.9-1.4-1.9-1.9-3
			c-0.3-0.4-0.2-1.1,0.2-1.4c0.1,0,0.1-0.1,0.2-0.1c0.3-0.2,0.6-0.4,0.8-0.5l2.1-1.4c0.8-0.6,1.6-1.2,2.2-2c1.1-1.3,1.6-2.9,1.4-4.6
			c-0.1-1.5-0.8-2.9-2-3.9c-1.3-1.1-3.1-1.7-4.8-1.5c-0.5,0-1,0.1-1.4,0.2c0-0.2,0-0.3,0-0.5c0-1.8-0.1-3.7-0.3-5.5
			c-0.2-1.4-0.5-2.7-0.9-4c-1-3-2.8-5.7-5.1-7.7c-3.3-3-7.5-4.8-12-5.1c-1.4-0.1-2.9-0.1-4.3,0c-1.5,0.1-3.1,0.4-4.6,0.8
			c-3.8,1.1-7.2,3.3-9.7,6.3c-1.1,1.3-2,2.8-2.7,4.4c-0.8,2-1.3,4.2-1.5,6.4c-0.1,1.5-0.2,3-0.2,4.6c0,0.1,0,0.2,0,0.4"/>
	</g>
	<g>
		<path class="st0" d="M247.8,267.3c0,2.6-0.2,5.2-0.3,7.8c0,0.3,0,0.5,0,0.8c0,0.5,0.4,0.9,0.8,0.9c0,0,0,0,0.1,0
			c0.3,0,0.5,0,0.8-0.1c0.6-0.2,1.1-0.3,1.7-0.6c1.3-0.5,2.7-1.1,4.1-1.5c0.7-0.2,1.4-0.3,2.1-0.4c0.7-0.1,1.4,0,2.1,0.2
			c0.9,0.3,1.6,1,1.9,1.9c0.4,1,0.3,2.1-0.3,3c-0.3,0.5-0.7,1-1.1,1.4c-0.6,0.6-1.3,1.2-2.1,1.6l-4,2.6l-2.8,1.9
			c-0.4,0.3-0.8,0.6-1.1,1c-0.5,0.5-0.8,1.3-0.8,2.1c0,0.8,0.2,1.5,0.4,2.2c0.7,2.3,1.7,4.6,3,6.6c2.4,3.7,5.4,7,9,9.6
			c2.4,1.8,5,3.4,7.8,4.8c0.3,0.1,0.5,0.3,0.8,0.4c0.2,0.1,0.4,0.3,0.6,0.5c0.3,0.3,0.3,0.8,0.1,1.1c-0.2,0.2-0.3,0.5-0.6,0.6
			c-0.4,0.3-0.8,0.5-1.2,0.8c-1.9,1-4,1.8-6.1,2.3c-0.8,0.2-1.6,0.4-2.5,0.7c-0.5,0.2-1,0.4-1.4,0.6c-0.8,0.4-1.4,1.2-1.6,2.2
			c-0.1,0.5-0.2,1.1-0.3,1.7c0,0.2-0.1,0.5-0.1,0.7c-0.2,0.6-0.6,1.1-1.3,1.3c-0.6,0.2-1.1,0.3-1.7,0.3l-3.3,0.2
			c-2.5,0.1-4.9,0.4-7.3,1c-1.7,0.4-3.4,1.1-4.9,2c-1,0.6-2,1.2-3,1.8c-1.7,1.1-3.5,2-5.3,2.8c-1.9,0.7-3.9,1.2-5.9,1.4
			c-2.2,0.2-4.4,0.2-6.5-0.1c-2.6-0.3-5.1-1.1-7.5-2.4c-1-0.5-2.1-1.1-3.1-1.7l-2.5-1.5c-2.1-1.2-4.4-2.1-6.7-2.5
			c-2.1-0.4-4.2-0.7-6.3-0.7c-1,0-2.1-0.1-3.1-0.2c-0.5,0-1.1-0.1-1.6-0.3c-0.7-0.2-1.2-0.7-1.4-1.4c-0.1-0.5-0.2-1-0.3-1.4
			c0-0.3-0.1-0.6-0.2-0.9c-0.2-0.9-0.7-1.6-1.5-2c-0.7-0.4-1.5-0.7-2.3-0.9c-1.2-0.3-2.4-0.7-3.6-1c-1.5-0.5-2.9-1.1-4.3-1.8
			c-0.4-0.2-0.8-0.5-1.2-0.8c-0.8-0.7-0.7-1.3,0.1-1.9c0.3-0.2,0.7-0.4,1-0.6c2.8-1.4,5.4-3,7.9-4.9c3.5-2.7,6.6-6,8.9-9.7
			c1.3-2,2.3-4.2,2.9-6.5c0.2-0.6,0.3-1.2,0.4-1.8c0.1-0.9-0.2-1.8-0.9-2.5c-0.4-0.4-0.8-0.7-1.2-1c-1.4-1-2.8-1.9-4.2-2.8l-2.6-1.7
			c-0.7-0.4-1.3-0.9-1.9-1.5c-0.5-0.4-0.9-1-1.2-1.5c-0.6-1.1-0.6-2.4,0.1-3.5c0.5-0.8,1.2-1.3,2.1-1.4c0.8-0.2,1.7-0.1,2.5,0.1
			c1.4,0.3,2.7,0.8,4,1.3c0.8,0.3,1.6,0.6,2.4,0.9c0.4,0.1,0.8,0.2,1.1,0.2c0.5,0.1,0.9-0.3,1-0.8c0-0.1,0-0.1,0-0.2
			c0-0.5,0-0.9,0-1.4c-0.3-3.9-0.4-7.9-0.2-11.9c0.1-2.5,0.5-5.1,1.1-7.5c0.7-2.4,1.7-4.6,3.2-6.6c3.3-4.5,7.9-7.9,13.3-9.5
			c2.1-0.6,4.2-1.1,6.4-1.2c1.9-0.2,3.9-0.2,5.9,0c5.7,0.4,11,2.6,15.3,6.3c3.9,3.3,6.6,7.9,7.6,13c0.3,1.6,0.5,3.2,0.6,4.8
			C247.8,263.8,247.8,265.5,247.8,267.3"/>
	</g>
	<g>
		<path class="st0" d="M97.8,238.5c-26.9,0-48.7,21.8-48.7,48.7c0,26.9,21.8,48.7,48.7,48.7s48.7-21.8,48.7-48.7
			C146.4,260.3,124.7,238.5,97.8,238.5C97.8,238.5,97.8,238.5,97.8,238.5 M128.4,304.8c-0.1,0.2-0.2,0.3-0.4,0.4
			c-0.2,0.2-0.5,0.3-0.7,0.5c-1.2,0.6-2.4,1.1-3.8,1.4c-0.5,0.1-1,0.3-1.5,0.4c-0.3,0.1-0.6,0.2-0.9,0.4c-0.5,0.3-0.9,0.7-1,1.3
			c-0.1,0.3-0.1,0.7-0.2,1c0,0.1-0.1,0.3-0.1,0.4c-0.1,0.4-0.4,0.7-0.8,0.8c-0.3,0.1-0.7,0.2-1.1,0.2l-2,0.1c-1.5,0-3,0.3-4.5,0.6
			c-1.1,0.3-2.1,0.7-3.1,1.2c-0.6,0.4-1.3,0.7-1.9,1.1c-1,0.7-2.2,1.2-3.3,1.7c-1.2,0.5-2.4,0.8-3.6,0.9c-1.3,0.2-2.7,0.2-4,0
			c-1.6-0.2-3.2-0.7-4.7-1.4c-0.6-0.3-1.3-0.7-1.9-1.1l-1.6-0.9c-1.3-0.8-2.7-1.3-4.2-1.6c-1.3-0.3-2.6-0.4-3.9-0.5l-1.9-0.1
			c-0.3,0-0.7-0.1-1-0.2c-0.4-0.1-0.7-0.4-0.8-0.9c-0.1-0.3-0.1-0.6-0.2-0.9c0-0.2-0.1-0.4-0.1-0.6c-0.1-0.5-0.5-1-0.9-1.3
			c-0.5-0.2-0.9-0.4-1.4-0.6l-2.2-0.6c-0.9-0.3-1.8-0.7-2.7-1.1c-0.3-0.1-0.5-0.3-0.7-0.5c-0.5-0.4-0.4-0.8,0.1-1.2
			c0.2-0.1,0.4-0.3,0.6-0.4c1.7-0.8,3.4-1.8,4.9-3c2.2-1.6,4.1-3.7,5.5-6c0.8-1.2,1.4-2.6,1.8-4c0.1-0.4,0.2-0.7,0.2-1.1
			c0.1-0.6-0.1-1.1-0.5-1.5c-0.2-0.2-0.5-0.4-0.7-0.6c-0.8-0.6-1.7-1.2-2.6-1.7l-1.6-1.1c-0.4-0.3-0.8-0.6-1.2-0.9
			c-0.3-0.3-0.6-0.6-0.8-1c-0.4-0.7-0.3-1.5,0.1-2.2c0.3-0.5,0.8-0.8,1.3-0.9c0.5-0.1,1.1-0.1,1.6,0c0.9,0.2,1.7,0.5,2.5,0.8
			c0.5,0.2,1,0.4,1.5,0.5c0.2,0.1,0.5,0.1,0.7,0.1c0.3,0,0.6-0.2,0.6-0.5c0,0,0-0.1,0-0.1c0-0.3,0-0.6,0-0.9
			c-0.2-2.4-0.2-4.9-0.1-7.3c0.1-1.6,0.3-3.1,0.7-4.6c0.4-1.5,1.1-2.9,2-4.1c2-2.8,4.9-4.9,8.2-5.9c1.3-0.4,2.6-0.7,4-0.8
			c1.2-0.1,2.4-0.1,3.6,0c3.5,0.3,6.8,1.7,9.4,4c2.4,2.1,4.1,4.9,4.7,8.1c0.2,1,0.3,2,0.4,3c0.1,1.1,0.1,2.2,0.1,3.3
			c0,1.6-0.1,3.2-0.2,4.9c0,0.2,0,0.3,0,0.5c0,0.3,0.2,0.5,0.5,0.5c0,0,0,0,0.1,0c0.2,0,0.3,0,0.5,0c0.3-0.1,0.7-0.2,1-0.4
			c0.8-0.3,1.7-0.7,2.5-0.9c0.4-0.1,0.9-0.2,1.3-0.3c0.4-0.1,0.9,0,1.3,0.1c0.6,0.2,1,0.6,1.2,1.2c0.2,0.6,0.2,1.3-0.2,1.9
			c-0.2,0.3-0.4,0.6-0.7,0.8c-0.4,0.4-0.8,0.7-1.3,1l-2.5,1.6c-0.6,0.4-1.2,0.8-1.8,1.2c-0.3,0.2-0.5,0.4-0.7,0.6
			c-0.3,0.3-0.5,0.8-0.5,1.3c0,0.5,0.1,0.9,0.2,1.4c0.4,1.4,1.1,2.8,1.9,4.1c1.5,2.3,3.4,4.4,5.6,6c1.5,1.1,3.1,2.1,4.8,2.9
			c0.2,0.1,0.3,0.2,0.5,0.3c0.1,0.1,0.3,0.2,0.3,0.3C128.4,304.4,128.4,304.7,128.4,304.8"/>
	</g>
	<g>
		<path class="st0" d="M454,238.3c-27,0-48.8,21.9-48.8,48.8s21.9,48.8,48.8,48.8c27,0,48.8-21.9,48.8-48.8l0,0
			C502.8,260.2,480.9,238.3,454,238.3 M486.5,260.6c6.1,7.4,9.4,16.6,9.5,26.2c-1.4-0.3-15.3-3.1-29.3-1.3c-0.3-0.7-0.6-1.4-0.9-2.2
			c-0.9-2-1.8-4.1-2.8-6.1C478.6,270.8,485.6,261.8,486.5,260.6 M454,245.2c10.3,0,20.2,3.8,27.9,10.6c-0.8,1.1-7.1,9.5-22,15.2
			c-4.7-8.5-9.9-16.8-15.7-24.6C447.4,245.5,450.7,245.1,454,245.2 M436.1,249.2c5.6,7.8,10.8,15.9,15.6,24.3
			c-12.7,3.3-25.8,5-38.9,5.1C415.6,265.7,424.2,254.8,436.1,249.2 M411.9,287.2v-1.3c14.6,0.1,29.2-2,43.2-6
			c1.2,2.3,2.4,4.8,3.4,7.2l-1.7,0.5c-21.7,7-33.2,26.1-34.2,27.7C415.8,307.6,411.9,297.6,411.9,287.2 M454,329.2
			c-9.4,0-18.4-3.1-25.8-8.8c0.8-1.5,9.3-18,33-26.3c0.1,0,0.2,0,0.3-0.1c4,10.3,7,21,9,31.9C465.3,328.1,459.7,329.2,454,329.2
			 M477.4,322c-1.9-10.2-4.6-20.3-8.2-30c8.7-1.3,17.7-0.7,26.2,1.8C493.6,305.3,487.1,315.5,477.4,322"/>
	</g>
	<g>
		<path class="st0" d="M602.8,265.7l-0.7,0.6c-2.3,2-4.8,3.9-7.5,5.6l-1.2,0.7c-0.8,0.5-1.6,1-2.5,1.5c-2.8,1.6-5.7,3-8.7,4.2
			c0.8,1.6,1.6,3.3,2.3,5c0.3,0.6,0.5,1.1,0.7,1.7c0.2,0.6,0.3,0.8,0.5,1.2c0.2,0.4,0.3,0.8,0.5,1.2c1.9-0.2,3.9-0.4,5.8-0.5
			c1,0,1.9-0.1,2.8-0.1s1.9,0,2.8,0c3.2,0,6.2,0.2,8.9,0.4c1.9,0.2,3.7,0.4,5.3,0.6l1.8,0.2l1.5,0.2c1.9,0.3,3.1,0.5,3.5,0.6
			c-0.1-4.7-0.8-9.3-2.2-13.7c-0.4-1.2-0.9-2.5-1.4-3.7c-0.2-0.6-0.5-1.2-0.8-1.8c-1.6-3.5-3.7-6.8-6.1-9.7
			C606.6,262,604.8,263.9,602.8,265.7"/>
		<path class="st0" d="M561.8,276c1.5-0.3,3-0.7,4.5-1c1.2-0.3,2.4-0.6,3.5-0.9c-2.9-5.1-5.9-10-8.5-14.1l-1.3-2
			c-0.4-0.7-0.8-1.3-1.2-1.9c-0.4-0.6-0.8-1.2-1.2-1.7c-1.5-2.2-2.7-4-3.6-5.3c-0.2-0.3-0.4-0.6-0.6-0.8c-0.4-0.5-0.6-0.9-0.8-1.1
			c-2.4,1.1-4.7,2.5-6.9,4c-2.9,2-5.6,4.4-7.9,7.1c-1.8,2-3.4,4.1-4.8,6.4l-0.7,1.1c-2.5,4.3-4.3,9-5.3,13.8
			C538.6,279.7,550.3,278.4,561.8,276"/>
		<path class="st0" d="M569.5,243c-1.8,0.1-3.5,0.3-5.3,0.6c-0.9,0.2-1.9,0.3-2.8,0.6c0.1,0.2,0.3,0.4,0.5,0.8
			c1,1.3,2.8,3.9,5.2,7.4c0.4,0.6,0.8,1.2,1.2,1.8c3.1,4.7,6.9,10.7,10.4,17.3c1.5-0.6,3-1.2,4.4-1.8c0.9-0.4,1.8-0.8,2.7-1.3
			c5.2-2.6,10-5.9,14.1-10c0.3-0.3,0.6-0.7,0.9-1l0.4-0.5c0.3-0.3,0.5-0.5,0.7-0.8c0.6-0.7,1-1.2,1.1-1.5c-1-0.9-2.1-1.8-3.2-2.6
			c-8-5.9-17.7-9.1-27.6-9.1C571.4,242.9,570.4,242.9,569.5,243"/>
		<path class="st0" d="M606.5,294.4l-2.2-0.2l-1.1-0.1c-0.8,0-1.5-0.1-2.3-0.1c-0.8,0-1.6,0-2.4,0c-3.1,0-6.2,0.3-9.2,0.7
			c2.1,5.7,3.8,11.1,5,15.8c0.4,1.3,0.7,2.5,1,3.7c1,3.9,1.7,7.2,2.2,9.6c0.1,0.5,0.2,0.9,0.3,1.3l0.1,0.6c0.2,0.9,0.3,1.6,0.4,2.1
			c5.2-3.5,9.7-8,13.1-13.3c3.5-5.4,5.8-11.4,6.8-17.8C614.3,295.6,610.4,294.8,606.5,294.4"/>
		<path class="st0" d="M577.1,335.5c2.3-0.2,4.6-0.6,6.9-1.2c0.8-0.2,1.5-0.4,2.2-0.6c1.5-0.5,2.9-1,4.3-1.6
			c-0.2-1.2-0.6-3.2-1.1-5.9c-0.1-0.5-0.2-0.9-0.3-1.4l-0.1-0.4c-0.6-2.5-1.3-5.4-2.2-8.7c-0.2-0.8-0.5-1.7-0.7-2.6
			s-0.5-1.8-0.8-2.7c-0.3-0.9-0.6-1.9-0.9-2.8c-1.1-3.4-2.3-6.9-3.8-10.6c-0.1,0.1-0.2,0.1-0.3,0.1c-10.5,3.5-20,9.4-27.7,17.3
			c-0.4,0.4-0.7,0.7-1,1.1c-0.7,0.7-1.3,1.4-1.9,2.1c-0.6,0.7-1.1,1.3-1.6,2c-0.5,0.7-0.9,1.2-1.3,1.8c-1.1,1.5-2.1,3.1-2.9,4.8
			c1,0.8,2,1.5,3,2.2c3.2,2.1,6.6,3.8,10.1,5c1.2,0.4,2.4,0.8,3.7,1.1c3.8,1,7.7,1.5,11.7,1.5C573.9,335.8,575.5,335.7,577.1,335.5"
			/>
		<path class="st0" d="M533.2,314.3c1.4,2.1,2.9,4.1,4.6,6c0.2-0.4,1-1.7,2.4-3.6c0.2-0.3,0.4-0.6,0.6-0.8c2.2-3,4.7-5.9,7.3-8.6
			c2.1-2.2,4.4-4.2,6.8-6.2c6.1-5,13.2-8.9,20.7-11.4l0.9-0.2l0.9-0.3c-0.3-0.7-0.6-1.3-0.9-2c-0.9-2-1.9-4-2.9-5.9
			c-4.4,1.3-8.7,2.3-12.8,3.2l-2.1,0.4c-6.2,1.2-11.9,1.9-16.9,2.3c-2.2,0.2-4.2,0.3-6,0.4c-0.9,0-1.8,0.1-2.6,0.1H532l-2.1,0.1
			c-2.2,0-3.6,0-4.1,0v1.4c0,1.5,0.1,3,0.2,4.4s0.4,2.9,0.6,4.3c0.9,4.9,2.6,9.5,5.1,13.9C532.2,312.7,532.8,313.5,533.2,314.3"/>
	</g>
	<g id="Vector_Smart_Object">
		<path class="st0" d="M752.9,249.2c-4.5,2-9.3,3.3-14.3,3.9c5.2-3.1,9.1-8,10.9-13.8c-4.9,2.9-10.2,4.9-15.8,6
			c-9.4-10-25.2-10.5-35.2-1.1c-6.4,6.1-9.2,15.1-7.2,23.7c-20-1-38.6-10.5-51.2-26c-6.6,11.4-3.2,25.9,7.7,33.2
			c-3.9-0.1-7.8-1.2-11.3-3.1v0.3c0,11.8,8.3,22,19.9,24.4c-2.1,0.6-4.3,0.9-6.6,0.9c-1.6,0-3.1-0.2-4.7-0.4
			c3.2,10.2,12.5,17.1,23.2,17.4c-8.8,6.9-19.7,10.7-30.9,10.6c-2,0-4-0.1-5.9-0.3c11.4,7.3,24.6,11.2,38.1,11.2
			c45.7,0,70.7-37.9,70.7-70.7c0-1.1,0-2.1-0.1-3.2C745.3,258.6,749.5,254.2,752.9,249.2"/>
	</g>
</g>
</svg>
