<svg id="e8ce9d5d-0400-4319-99a2-eaa55bbce5c0" data-name="Layer 1" xmlns="http://www.w3.org/2000/svg" viewBox="0 0 1430.7 663.5"><line x1="749.1" y1="155.6" x2="749.1" y2="155.6" fill="#8f8f8f" stroke="#29abe2" stroke-miterlimit="10" stroke-width="3"/><text transform="translate(864.1 108.1)" font-size="127.19" fill="#fff" font-family="GeomGraphic-SemiBold, Geom Graphic" font-weight="600" letter-spacing="0.03em">STEP 1</text><text transform="translate(1012.2 196.8)" font-size="75" fill="#00c3ff" font-family="GeomGraphic-Light, Geom Graphic" font-weight="300" letter-spacing="0.06em">Research</text><text transform="translate(272.5 310.3) scale(1.19 1)" font-size="60" fill="#ccc" font-family="GeomGraphic-Light, Geom Graphic" font-weight="300">What’s the industry standard?<tspan x="-107.8" y="85">Can we make it bette</tspan><tspan x="559" y="85" letter-spacing="0.02em">r</tspan><tspan x="584.5" y="85">? Who’s the</tspan><tspan x="-123.3" y="170">industry leade</tspan><tspan x="328.9" y="170" letter-spacing="0.02em">r</tspan><tspan x="354.3" y="170">? How can we beat</tspan><tspan x="-33.7" y="255">them? All while brainstorming a</tspan><tspan x="-168.8" y="340">technical and designable approach.</tspan></text><path d="M140.9,766.5" transform="translate(-14.4 -423.7)"/><circle cx="817.5" cy="40.2" r="18.9" fill="#fff"/><circle cx="817.5" cy="84" r="18.9" fill="#fff"/><circle cx="772.5" cy="41.3" r="18" fill="#fff"/><circle cx="772.5" cy="82.9" r="18" fill="#fff"/><circle cx="727.5" cy="42.3" r="17.1" fill="#fff"/><circle cx="727.5" cy="81.8" r="17.1" fill="#fff"/><circle cx="682.5" cy="43.3" r="16.2" fill="#fff"/><circle cx="682.5" cy="80.8" r="16.2" fill="#fff"/><circle cx="637.5" cy="44.2" r="15.4" fill="#fff"/><circle cx="637.5" cy="79.9" r="15.4" fill="#fff"/><circle cx="592.5" cy="45.1" r="14.6" fill="#fff"/><circle cx="592.5" cy="79" r="14.6" fill="#fff"/><circle cx="547.5" cy="46" r="13.9" fill="#fff"/><circle cx="547.5" cy="78.2" r="13.9" fill="#fff"/><circle cx="502.5" cy="46.8" r="13.2" fill="#fff"/><circle cx="502.5" cy="77.4" r="13.2" fill="#fff"/><circle cx="457.5" cy="47.5" r="12.6" fill="#fff"/><circle cx="457.5" cy="76.6" r="12.6" fill="#fff"/><circle cx="412.5" cy="48.3" r="11.9" fill="#fff"/><circle cx="412.5" cy="75.9" r="11.9" fill="#fff"/><circle cx="367.5" cy="48.9" r="11.3" fill="#fff"/><circle cx="367.5" cy="75.2" r="11.3" fill="#fff"/><circle cx="322.5" cy="49.6" r="10.8" fill="#fff"/><circle cx="322.5" cy="74.5" r="10.8" fill="#fff"/><circle cx="277.5" cy="50.2" r="10.2" fill="#fff"/><circle cx="277.5" cy="73.9" r="10.2" fill="#fff"/><circle cx="232.5" cy="50.8" r="9.7" fill="#fff"/><circle cx="232.5" cy="73.3" r="9.7" fill="#fff"/><circle cx="187.5" cy="51.4" r="9.2" fill="#fff"/><circle cx="187.5" cy="72.7" r="9.2" fill="#fff"/><circle cx="142.5" cy="51.9" r="8.8" fill="#fff"/><circle cx="142.5" cy="72.2" r="8.8" fill="#fff"/><circle cx="97.5" cy="52.4" r="8.3" fill="#fff"/><circle cx="97.5" cy="71.7" r="8.3" fill="#fff"/><circle cx="52.5" cy="52.9" r="7.9" fill="#fff"/><circle cx="52.5" cy="71.2" r="7.9" fill="#fff"/><circle cx="7.5" cy="53.4" r="7.5" fill="#fff"/><circle cx="7.5" cy="70.8" r="7.5" fill="#fff"/></svg>