<svg xmlns="http://www.w3.org/2000/svg" xmlns:xlink="http://www.w3.org/1999/xlink" viewBox="0 0 94.32 112.31">
  <defs>
    <style>
      .cls-1, .cls-4 {
        fill: none;
      }

      .cls-2 {
        clip-path: url(#clip-path);
      }

      .cls-3 {
        fill: url(#radial-gradient);
      }

      .cls-4 {
        stroke: #e2623b;
        stroke-miterlimit: 10;
        stroke-width: 3.43px;
      }

      .cls-5 {
        fill: #fff;
      }

      .cls-6 {
        opacity: 0;
      }
    </style>
    <clipPath id="clip-path">
      <rect class="cls-1" x="1.72" y="1.72" width="90.89" height="90.89" rx="18.7"/>
    </clipPath>
    <radialGradient id="radial-gradient" cx="-134.32" cy="-15.71" r="0.43" gradientTransform="matrix(188.68, 0, 0, -188.68, 25390.68, -2916.41)" gradientUnits="userSpaceOnUse">
      <stop offset="0" stop-color="#333"/>
      <stop offset="0.01" stop-color="#323232"/>
      <stop offset="0.57"/>
      <stop offset="1"/>
    </radialGradient>
  </defs>
  <g id="Layer_2" data-name="Layer 2">
    <g id="Dark_Logo" data-name="Dark Logo">
      <g>
        <g>
          <g class="cls-2">
            <rect class="cls-3" x="1.72" y="1.72" width="90.89" height="90.89"/>
          </g>
          <rect class="cls-4" x="1.72" y="1.72" width="90.89" height="90.89" rx="18.7"/>
        </g>
        <path class="cls-5" d="M73.69,28.2a18.71,18.71,0,0,1-1.31,7A19.22,19.22,0,0,1,62,45.23L52,66.12H42.32l-10-20.89A19.16,19.16,0,0,1,21.94,35.16a18.51,18.51,0,0,1-1.31-7,18.7,18.7,0,0,0,17.3,11.17L45,55l2.18,4.88L49.33,55l7.06-15.65A18.7,18.7,0,0,0,73.69,28.2"/>
      </g>
      <g class="cls-6">
        <polygon class="cls-5" points="6.27 104.24 8.13 104.24 11.46 109.77 14.78 104.24 16.64 104.24 11.46 112.27 6.27 104.24"/>
        <rect class="cls-5" x="20.71" y="104.24" width="1.61" height="7.89"/>
        <path class="cls-5" d="M34.13,110.54H29.21l-1,1.59H26.41l5.26-8,5.26,8h-1.8Zm-4.06-1.37h3.18l-1.58-2.5Z"/>
        <path class="cls-5" d="M41,112.13v-7.89h5.23c1.77,0,2.93.44,2.93,2.22a1.46,1.46,0,0,1-.89,1.38,1.9,1.9,0,0,1,1.6,1.93c0,1.68-1,2.36-3.27,2.36Zm1.62-6.53v1.79h3.61c.73,0,1.23-.24,1.23-.9s-.52-.89-1.23-.89Zm0,3.16v2h4c1,0,1.56-.23,1.56-1s-.54-1-1.56-1Z"/>
        <path class="cls-5" d="M61.76,104.24h1.61v4.06c0,2.82-2,4-4.44,4s-4.41-1.19-4.41-4v-4.06h1.6v4.06a2.49,2.49,0,0,0,2.81,2.64c1.43,0,2.83-.64,2.83-2.64Z"/>
        <polygon class="cls-5" points="68.61 112.13 68.61 104.24 70.22 104.24 70.22 110.77 76.12 110.77 76.12 112.13 68.61 112.13"/>
        <polygon class="cls-5" points="80.54 112.13 80.54 104.24 82.16 104.24 82.16 110.77 88.05 110.77 88.05 112.13 80.54 112.13"/>
      </g>
    </g>
  </g>
</svg>
