<svg xmlns="http://www.w3.org/2000/svg" xmlns:xlink="http://www.w3.org/1999/xlink" viewBox="0 0 90.89 109.79">
  <defs>
    <style>
      .cls-1 {
        fill: none;
      }

      .cls-2 {
        clip-path: url(#clip-path);
      }

      .cls-3 {
        fill: url(#radial-gradient);
      }

      .cls-4 {
        fill: #161616;
      }

      .cls-5 {
        opacity: 0;
      }

      .cls-6 {
        fill: #fff;
      }
    </style>
    <clipPath id="clip-path" transform="translate(0 0)">
      <rect class="cls-1" width="90.89" height="90.89" rx="18.7"/>
    </clipPath>
    <radialGradient id="radial-gradient" cx="-14.07" cy="-16.36" r="0.43" gradientTransform="matrix(105.95, 0, 0, -105.95, 1536.11, -1687.65)" gradientUnits="userSpaceOnUse">
      <stop offset="0" stop-color="#ffb115"/>
      <stop offset="0.28" stop-color="#f69a20"/>
      <stop offset="1" stop-color="#e2623b"/>
    </radialGradient>
  </defs>
  <g id="Layer_2" data-name="Layer 2">
    <g id="Orange_Logo" data-name="Orange Logo">
      <g>
        <g class="cls-2">
          <rect class="cls-3" width="90.89" height="90.89"/>
        </g>
        <path class="cls-4" d="M72,28a18.73,18.73,0,0,1-1.3,7A19.26,19.26,0,0,1,60.31,45.05l-10,20.89H40.61l-10-20.89A19.26,19.26,0,0,1,20.22,35a18.53,18.53,0,0,1-1.3-7,18.68,18.68,0,0,0,17.3,11.17l7.05,15.65,2.17,4.88,2.18-4.88,7.05-15.65A18.7,18.7,0,0,0,72,28" transform="translate(0 0)"/>
      </g>
      <g class="cls-5">
        <polygon class="cls-6" points="4.55 101.72 6.42 101.72 9.74 107.24 13.06 101.72 14.93 101.72 9.74 109.75 4.55 101.72"/>
        <rect class="cls-6" x="19" y="101.72" width="1.61" height="7.89"/>
        <path class="cls-6" d="M32.41,108H27.49l-1,1.58h-1.8l5.26-8,5.26,8H33.42Zm-4.06-1.37h3.19L30,104.15Z" transform="translate(0 0)"/>
        <path class="cls-6" d="M39.31,109.6v-7.88h5.23c1.77,0,2.92.44,2.92,2.22a1.46,1.46,0,0,1-.89,1.38,1.88,1.88,0,0,1,1.6,1.92c0,1.69-1,2.36-3.26,2.36Zm1.61-6.53v1.8h3.62c.72,0,1.23-.24,1.23-.91s-.52-.89-1.23-.89Zm0,3.17v2h4c1,0,1.55-.23,1.55-1s-.54-1-1.55-1Z" transform="translate(0 0)"/>
        <path class="cls-6" d="M60,101.72h1.62v4c0,2.83-2,4-4.44,4s-4.41-1.19-4.41-4v-4H54.4v4a2.5,2.5,0,0,0,2.82,2.65A2.5,2.5,0,0,0,60,105.77Z" transform="translate(0 0)"/>
        <polygon class="cls-6" points="66.9 109.6 66.9 101.72 68.51 101.72 68.51 108.25 74.4 108.25 74.4 109.6 66.9 109.6"/>
        <polygon class="cls-6" points="78.83 109.6 78.83 101.72 80.44 101.72 80.44 108.25 86.33 108.25 86.33 109.6 78.83 109.6"/>
      </g>
    </g>
  </g>
</svg>
