<svg xmlns="http://www.w3.org/2000/svg" viewBox="0 0 321.13 139.08">
  <defs>
    <style>
      .cls-1 {
        fill: #fff;
      }
    </style>
  </defs>
  <g id="Layer_2" data-name="Layer 2">
    <g id="Dark_Logo" data-name="Dark Logo">
      <g>
        <polygon class="cls-1" points="33.41 107.39 20.37 129.09 7.33 107.39 0 107.39 20.37 138.92 40.74 107.39 33.41 107.39"/>
        <rect class="cls-1" x="56.72" y="107.39" width="6.33" height="30.97"/>
        <path class="cls-1" d="M109.4,132.14H90.08l-3.94,6.22h-7l20.65-31.53,20.65,31.53h-7Zm-15.94-5.38H106l-6.21-9.82Z"/>
        <g>
          <path class="cls-1" d="M136.48,138.36v-31H157c6.93,0,11.48,1.72,11.48,8.71a5.78,5.78,0,0,1-3.49,5.44,7.41,7.41,0,0,1,6.27,7.55c0,6.61-3.72,9.27-12.82,9.27Zm6.33-25.64v7H157c2.83,0,4.82-1,4.82-3.56s-2.05-3.49-4.82-3.49Zm0,12.43V133h15.65c3.77,0,6.1-.88,6.1-3.94s-2.11-3.94-6.1-3.94Z"/>
          <path class="cls-1" d="M217.9,107.39h6.33v15.93c0,11.1-7.83,15.76-17.43,15.76s-17.32-4.66-17.32-15.76V107.39h6.27v15.93c0,7.88,5.5,10.38,11.05,10.38s11.1-2.5,11.1-10.38Z"/>
          <polygon class="cls-1" points="244.82 138.36 244.82 107.39 251.14 107.39 251.14 133.03 274.29 133.03 274.29 138.36 244.82 138.36"/>
          <polygon class="cls-1" points="291.66 138.36 291.66 107.39 297.99 107.39 297.99 133.03 321.13 133.03 321.13 138.36 291.66 138.36"/>
          <path class="cls-1" d="M178.28,21.44,164.74,51.49l-4.17,9.35-4.18-9.35-13.53-30A35.88,35.88,0,0,1,109.65,0a35.73,35.73,0,0,0,2.5,13.36c3.16,8,11,15.78,19.89,19.32L139.57,47l11.71,25.8h18.57L181.56,47l7.54-14.3C198,29.14,205.82,21.38,209,13.36A35.94,35.94,0,0,0,211.49,0a35.88,35.88,0,0,1-33.21,21.44"/>
        </g>
      </g>
    </g>
  </g>
</svg>
