<svg xmlns="http://www.w3.org/2000/svg" viewBox="0 0 330.25 757.48"><defs><style>.cls-1{fill:#fff;}</style></defs><g id="Layer_2" data-name="Layer 2"><g id="Layer_1-2" data-name="Layer 1"><g id="Social_Media_Icons" data-name="Social Media Icons"><path class="cls-1" d="M97,48.54A48.17,48.17,0,0,1,61.62,95V79.8a12.8,12.8,0,0,0-4.42-9.69c15.16-2,22.83-9.55,22.67-21.57A23.89,23.89,0,0,0,74.4,33.1a16.66,16.66,0,0,0,.94-5.49c0-3-.87-6.67-2.23-7.41s-10,2.44-13,4.73a49.66,49.66,0,0,0-11.49-1.28,49.9,49.9,0,0,0-11.44,1.26c-3-2.28-11.68-5.52-13-4.77s-2.24,4.41-2.24,7.42a16.45,16.45,0,0,0,1,5.53h0a23.78,23.78,0,0,0-5.49,15.44c-.16,12.11,7.62,19.68,23,21.62A12.71,12.71,0,0,0,36.57,76c-2.6,1-9.18,2.81-13.49-3.55-1.07-1.6-6.1-6.6-9.36-4.83-.47.3-1,1,.58,1.93,8.62,6.1,4.06,13.12,16,13.89,2,0,4.23-.21,5.75-.37V95A48.15,48.15,0,1,1,97,48.54"/><path class="cls-1" d="M304.24,0H256.1a23.62,23.62,0,0,0-23.61,23.61V71.74A23.62,23.62,0,0,0,256.1,95.35h48.14a23.61,23.61,0,0,0,23.61-23.61V23.61A23.61,23.61,0,0,0,304.24,0M289.59,82.47V71.31a9.42,9.42,0,0,0-3.25-7.13c11.16-1.47,16.8-7,16.68-15.87A17.55,17.55,0,0,0,299,37a12.24,12.24,0,0,0,.69-4c0-2.21-.64-4.9-1.64-5.45s-7.33,1.8-9.56,3.48a38.52,38.52,0,0,0-16.87,0c-2.2-1.68-8.6-4.06-9.6-3.51s-1.65,3.24-1.65,5.45a12.07,12.07,0,0,0,.71,4.08h0a17.55,17.55,0,0,0-4,11.36c-.12,8.91,5.61,14.48,16.92,15.91a9.41,9.41,0,0,0-2.8,4.3c-1.9.76-6.75,2.06-9.92-2.61-.79-1.18-4.49-4.86-6.88-3.56-.35.22-.7.73.42,1.42,6.34,4.49,3,9.65,11.74,10.22a39.24,39.24,0,0,0,4.22-.28v8.75a35.41,35.41,0,1,1,18.85,0"/><line class="cls-1" x1="179.08" y1="92.82" x2="179.08" y2="92.84"/><path class="cls-1" d="M173.62,62.18c18.7-2.46,28.17-11.78,28-26.62a29.39,29.39,0,0,0-6.75-19A20.33,20.33,0,0,0,196,9.74c0-3.7-1.07-8.23-2.76-9.14s-12.29,3-16,5.83a64.91,64.91,0,0,0-28.29,0c-3.68-2.81-14.42-6.8-16.1-5.89S130.06,6,130.06,9.68a20.09,20.09,0,0,0,1.2,6.82h0a29.33,29.33,0,0,0-6.77,19.05c-.2,14.95,9.4,24.29,28.37,26.68a15.74,15.74,0,0,0-4.69,7.21c-3.2,1.27-11.32,3.46-16.64-4.38-1.33-2-7.53-8.14-11.55-6-.58.38-1.17,1.23.72,2.39,10.63,7.53,5,16.19,19.68,17.13a68.25,68.25,0,0,0,7.08-.46V92.82a59.47,59.47,0,0,0,31.62,0V74.13a15.79,15.79,0,0,0-5.46-11.95"/><path class="cls-1" d="M207,350.44a12.19,12.19,0,0,0-8.58-8.58c-7.58-2-37.94-2-37.94-2s-30.36,0-37.93,2a12.19,12.19,0,0,0-8.58,8.58c-2,7.58-2,23.37-2,23.37s0,15.8,2,23.37a12.15,12.15,0,0,0,8.58,8.58c7.57,2,37.93,2,37.93,2s30.36,0,37.94-2a12.15,12.15,0,0,0,8.58-8.58c2-7.57,2-23.37,2-23.37s0-15.79-2-23.37m-56.39,37.94V359.25l25.22,14.56Z"/><polygon class="cls-1" points="273.29 383.26 291.09 372.98 273.29 362.7 273.29 383.26"/><path class="cls-1" d="M306.12,325.16H254.4A22.79,22.79,0,0,0,231.61,348v51.72a22.79,22.79,0,0,0,22.79,22.8h51.72a22.79,22.79,0,0,0,22.79-22.8V348a22.79,22.79,0,0,0-22.79-22.79m7,64.32a8.57,8.57,0,0,1-6.06,6.06C301.69,397,280.26,397,280.26,397s-21.43,0-26.78-1.43a8.59,8.59,0,0,1-6.06-6.06C246,384.14,246,373,246,373s0-11.15,1.43-16.49a8.59,8.59,0,0,1,6.06-6.06c5.35-1.43,26.78-1.43,26.78-1.43s21.43,0,26.77,1.43a8.57,8.57,0,0,1,6.06,6.06c1.44,5.34,1.44,16.49,1.44,16.49s0,11.16-1.44,16.5"/><polygon class="cls-1" points="42.51 383.11 58.61 373.81 42.51 364.51 42.51 383.11"/><path class="cls-1" d="M48.81,325.14a48.67,48.67,0,1,0,48.67,48.67,48.67,48.67,0,0,0-48.67-48.67M78.5,388.73A7.74,7.74,0,0,1,73,394.21c-4.83,1.3-24.21,1.3-24.21,1.3s-19.38,0-24.22-1.3a7.78,7.78,0,0,1-5.48-5.48c-1.29-4.83-1.29-14.92-1.29-14.92s0-10.08,1.29-14.92a7.81,7.81,0,0,1,5.48-5.48c4.84-1.29,24.22-1.29,24.22-1.29s19.38,0,24.21,1.29a7.78,7.78,0,0,1,5.48,5.48c1.3,4.84,1.3,14.92,1.3,14.92s0,10.09-1.3,14.92"/><path class="cls-1" d="M157.87,128.52a24.18,24.18,0,1,0,24.18,24.18,24.21,24.21,0,0,0-24.18-24.18m0,40.25a16.07,16.07,0,1,1,16.06-16.07,16.09,16.09,0,0,1-16.06,16.07"/><path class="cls-1" d="M189.6,128.4a5.81,5.81,0,1,1-5.8-5.8,5.81,5.81,0,0,1,5.8,5.8"/><path class="cls-1" d="M178.17,109.19H137.56a23.2,23.2,0,0,0-23.2,23.2V173a23.2,23.2,0,0,0,23.2,23.2h40.61A23.21,23.21,0,0,0,201.38,173V132.39a23.21,23.21,0,0,0-23.21-23.2M197.32,173a19.17,19.17,0,0,1-19.15,19.14H137.56A19.17,19.17,0,0,1,118.42,173V132.39a19.17,19.17,0,0,1,19.14-19.15h40.61a19.17,19.17,0,0,1,19.15,19.15Z"/><path class="cls-1" d="M178.17,105.13H137.56a27.29,27.29,0,0,0-27.26,27.26V173a27.29,27.29,0,0,0,27.26,27.26h40.61A27.29,27.29,0,0,0,205.44,173V132.39a27.29,27.29,0,0,0-27.27-27.26M197.32,173a19.17,19.17,0,0,1-19.15,19.14H137.56A19.17,19.17,0,0,1,118.42,173V132.39a19.17,19.17,0,0,1,19.14-19.15h40.61a19.17,19.17,0,0,1,19.15,19.15Z"/><path class="cls-1" d="M157.87,132.58A20.12,20.12,0,1,0,178,152.7a20.12,20.12,0,0,0-20.12-20.12m0,36.19a16.07,16.07,0,1,1,16.06-16.07,16.09,16.09,0,0,1-16.06,16.07"/><path class="cls-1" d="M157.87,128.52a24.18,24.18,0,1,0,24.18,24.18,24.21,24.21,0,0,0-24.18-24.18m0,40.25a16.07,16.07,0,1,1,16.06-16.07,16.09,16.09,0,0,1-16.06,16.07"/><path class="cls-1" d="M189.6,128.4a5.81,5.81,0,1,1-5.8-5.8,5.81,5.81,0,0,1,5.8,5.8"/><path class="cls-1" d="M281.59,140.7a12,12,0,1,0,12,12,12,12,0,0,0-12-12"/><path class="cls-1" d="M296.75,123.24H266.43a14.32,14.32,0,0,0-14.3,14.3v30.32a14.32,14.32,0,0,0,14.3,14.3h30.32a14.32,14.32,0,0,0,14.3-14.3V137.54a14.31,14.31,0,0,0-14.3-14.3m-15.16,47.52a18.06,18.06,0,1,1,18.06-18.06,18.08,18.08,0,0,1-18.06,18.06M301,138.89a4.34,4.34,0,1,1,4.34-4.33,4.33,4.33,0,0,1-4.34,4.33"/><path class="cls-1" d="M311.42,104.05H251.76a18.82,18.82,0,0,0-18.82,18.82v59.66a18.83,18.83,0,0,0,18.82,18.82h59.66a18.83,18.83,0,0,0,18.83-18.82V122.87a18.82,18.82,0,0,0-18.83-18.82m5.7,63.81a20.39,20.39,0,0,1-20.37,20.36H266.43a20.38,20.38,0,0,1-20.36-20.36V137.54a20.38,20.38,0,0,1,20.36-20.36h30.32a20.39,20.39,0,0,1,20.37,20.36Z"/><path class="cls-1" d="M62.54,127.33H36.42a12.32,12.32,0,0,0-12.31,12.31v26.12a12.32,12.32,0,0,0,12.31,12.31H62.54a12.33,12.33,0,0,0,12.32-12.31V139.64a12.33,12.33,0,0,0-12.32-12.31M49.48,168.25A15.55,15.55,0,1,1,65,152.7a15.57,15.57,0,0,1-15.56,15.55m16.68-27.44a3.74,3.74,0,1,1,3.73-3.74,3.74,3.74,0,0,1-3.73,3.74"/><path class="cls-1" d="M49.48,104.28A48.42,48.42,0,1,0,97.9,152.7a48.42,48.42,0,0,0-48.42-48.42m30.6,61.48a17.55,17.55,0,0,1-17.54,17.53H36.42a17.54,17.54,0,0,1-17.53-17.53V139.64A17.55,17.55,0,0,1,36.42,122.1H62.54a17.56,17.56,0,0,1,17.54,17.54Z"/><path class="cls-1" d="M49.48,142.37A10.33,10.33,0,1,0,59.81,152.7a10.34,10.34,0,0,0-10.33-10.33"/><path class="cls-1" d="M149.85,241.51v7.73H134v18.49h15.83v41.59h19.24V267.73l14.17.21,2.78-18.7H169.22l0-9.24v-1.74a7.93,7.93,0,0,1,7.93-7.93H187V214.21a53.74,53.74,0,0,0-11.35-.84c-16.26,0-25.79,8.59-25.79,28.14"/><path class="cls-1" d="M305.35,214.12H255a22,22,0,0,0-22.05,22v50.36A22,22,0,0,0,255,308.58h26.88v-34.1h-13V259.32h13V253c0-16,7.81-23.07,21.14-23.07a43.34,43.34,0,0,1,9.3.69v13.21h-8.09a6.5,6.5,0,0,0-6.5,6.5l0,9h13.79l-2.27,15.33-11.62-.17v34.1h7.71a22,22,0,0,0,22-22.05V236.17a22,22,0,0,0-22-22"/><path class="cls-1" d="M149.85,241.51v7.73H134v18.49h15.83v41.59h19.24V267.73l14.17.21,2.78-18.7H169.22l0-9.24v-1.74a7.93,7.93,0,0,1,7.93-7.93H187V214.21a53.74,53.74,0,0,0-11.35-.84c-16.26,0-25.79,8.59-25.79,28.14"/><path class="cls-1" d="M48.81,213.37a48.19,48.19,0,0,0-7.21,95.85V274.37H29.67V261.7H41.6v-8.44c0-14,6.8-20.09,18.41-20.09a66.8,66.8,0,0,1,9.89.6v11.06H62c-4.92,0-6.65,4.67-6.65,9.94v6.93H69.78l-2,12.67H55.34v34.95a48.2,48.2,0,0,0-6.53-95.95"/><path class="cls-1" d="M308.88,532.93H251.1c-.07-.07-.16-.06-.25-.07a18.66,18.66,0,0,1-2.79-.46,21.37,21.37,0,0,1-14-10.78,21,21,0,0,1-2.44-8.44,1,1,0,0,0-.16-.6V456.27a1.7,1.7,0,0,0,.16-.79,17.37,17.37,0,0,1,.28-2.27A21.4,21.4,0,0,1,253,435.62q27.25-.06,54.52,0a21.49,21.49,0,0,1,4.52.48,21.42,21.42,0,0,1,16.24,15.6,14.15,14.15,0,0,1,.52,3.1.41.41,0,0,0,.07.3v58.41a.69.69,0,0,0-.08.4c0,.19,0,.39,0,.59a22.22,22.22,0,0,1-.76,3.42,21.38,21.38,0,0,1-19.11,15m-49.3-60.08h-.05l-.18,0a7.4,7.4,0,0,0-2.89-.14,6,6,0,0,0-3.36,1.61,6.1,6.1,0,0,0-1.5,6.31,6.87,6.87,0,0,0,1.36,2.3,10.75,10.75,0,0,0,2.12,1.8l2.71,1.77a6.12,6.12,0,0,1,.5.39.73.73,0,0,1,.23.58,1.88,1.88,0,0,1-.16.66c-.09.19-.18.38-.28.57a17.1,17.1,0,0,1-3,4.07,22.46,22.46,0,0,1-5.69,4.13c-.54.28-1.09.56-1.62.85a5,5,0,0,0-1.3,1,4.08,4.08,0,0,0-1,4.09,4.83,4.83,0,0,0,1.06,1.85,7.26,7.26,0,0,0,2,1.59,19.69,19.69,0,0,0,4,1.67l.87.27a1.25,1.25,0,0,1,.77.74l.24.63a5,5,0,0,0,2.73,2.8,7.38,7.38,0,0,0,1.9.49c.92.11,1.85.12,2.77.16a22.39,22.39,0,0,1,2.72.29,9.9,9.9,0,0,1,3.53,1.3l1,.59c.72.44,1.43.87,2.17,1.27a18.23,18.23,0,0,0,7.69,2.2,21.12,21.12,0,0,0,3.28,0,18.2,18.2,0,0,0,5-1.16,24.16,24.16,0,0,0,3.89-2l1.84-1.1a6.6,6.6,0,0,1,1.24-.57,14.46,14.46,0,0,1,3.25-.68c1-.1,2-.11,3-.16a13.34,13.34,0,0,0,1.67-.19,5.15,5.15,0,0,0,4.09-3.38c.07-.18.15-.37.23-.54a1.14,1.14,0,0,1,.61-.59,5.54,5.54,0,0,1,.68-.25,19.29,19.29,0,0,0,3.21-1.18,11.55,11.55,0,0,0,2.05-1.17,6.22,6.22,0,0,0,1.76-2,4.15,4.15,0,0,0-1-5.23,6.36,6.36,0,0,0-1-.7c-.41-.23-.83-.45-1.25-.66a25,25,0,0,1-2.56-1.48,20.38,20.38,0,0,1-4.87-4.44,15.36,15.36,0,0,1-1.85-3,1,1,0,0,1,.42-1.51c.27-.19.56-.37.84-.55l2.1-1.38a10.09,10.09,0,0,0,2.24-2,6.12,6.12,0,0,0,1.43-4.62,5.76,5.76,0,0,0-2-3.93,6.34,6.34,0,0,0-4.84-1.47,12,12,0,0,0-1.44.23,1.29,1.29,0,0,1,0-.51,42.28,42.28,0,0,0-.27-5.51,20.68,20.68,0,0,0-.89-4,17.68,17.68,0,0,0-5.15-7.73,20.42,20.42,0,0,0-12-5.11,24.08,24.08,0,0,0-4.33,0,22.07,22.07,0,0,0-4.56.84,19.68,19.68,0,0,0-9.71,6.33,17.61,17.61,0,0,0-2.72,4.41,20.8,20.8,0,0,0-1.49,6.41c-.12,1.52-.17,3-.16,4.56,0,.12,0,.24,0,.35"/><path class="cls-1" d="M259.58,472.85c.08-.11,0-.23,0-.35,0-1.52,0-3,.16-4.56a20.8,20.8,0,0,1,1.49-6.41,17.61,17.61,0,0,1,2.72-4.41,19.68,19.68,0,0,1,9.71-6.33,22.07,22.07,0,0,1,4.56-.84,24.08,24.08,0,0,1,4.33,0,20.42,20.42,0,0,1,12,5.11,17.68,17.68,0,0,1,5.15,7.73,20.68,20.68,0,0,1,.89,4,42.28,42.28,0,0,1,.27,5.51,1.29,1.29,0,0,0,0,.51,12,12,0,0,1,1.44-.23,6.34,6.34,0,0,1,4.84,1.47,5.76,5.76,0,0,1,2,3.93,6.16,6.16,0,0,1-1.43,4.62,9.92,9.92,0,0,1-2.25,2c-.69.47-1.39.92-2.09,1.38l-.84.55a1,1,0,0,0-.42,1.51,15.36,15.36,0,0,0,1.85,3,20.38,20.38,0,0,0,4.87,4.44,25,25,0,0,0,2.56,1.48c.42.21.84.43,1.25.66a6.36,6.36,0,0,1,1,.7,4.15,4.15,0,0,1,1,5.23,6.22,6.22,0,0,1-1.76,2,11.55,11.55,0,0,1-2.05,1.17,19.52,19.52,0,0,1-3.2,1.18,5.13,5.13,0,0,0-.69.25,1.14,1.14,0,0,0-.61.59c-.08.17-.16.36-.23.54a5.15,5.15,0,0,1-4.09,3.38,13.34,13.34,0,0,1-1.67.19c-1,0-2,.06-3,.16a14.46,14.46,0,0,0-3.25.68,6.6,6.6,0,0,0-1.24.57l-1.84,1.1a24.16,24.16,0,0,1-3.89,2,18.2,18.2,0,0,1-5,1.16,21.12,21.12,0,0,1-3.28,0,18.23,18.23,0,0,1-7.69-2.2c-.74-.4-1.45-.83-2.17-1.27l-1-.59a9.9,9.9,0,0,0-3.53-1.3,22.39,22.39,0,0,0-2.72-.29c-.92,0-1.85,0-2.77-.16a7.38,7.38,0,0,1-1.9-.49,5,5,0,0,1-2.73-2.8l-.24-.63a1.25,1.25,0,0,0-.77-.74l-.87-.27a19.69,19.69,0,0,1-4-1.67,7.46,7.46,0,0,1-2-1.59,4.94,4.94,0,0,1-1-1.85,4.08,4.08,0,0,1,1-4.09,5,5,0,0,1,1.3-1c.53-.29,1.08-.57,1.62-.85a22.46,22.46,0,0,0,5.69-4.13,17.1,17.1,0,0,0,3-4.07c.1-.19.19-.38.28-.57a1.88,1.88,0,0,0,.16-.66.73.73,0,0,0-.23-.58,6.12,6.12,0,0,0-.5-.39l-2.71-1.77a10.75,10.75,0,0,1-2.12-1.8,6.87,6.87,0,0,1-1.36-2.3,6.1,6.1,0,0,1,1.5-6.31,6,6,0,0,1,3.36-1.61,7.4,7.4,0,0,1,2.89.14l.18,0h.05m37.35-.6c0-1.09,0-2.19-.08-3.28a27.13,27.13,0,0,0-.37-3,14,14,0,0,0-4.72-8.12,16.64,16.64,0,0,0-9.53-4,20.12,20.12,0,0,0-3.64,0,18.42,18.42,0,0,0-4,.76,15.72,15.72,0,0,0-8.28,5.9,13,13,0,0,0-2,4.12,20.08,20.08,0,0,0-.71,4.68,62.85,62.85,0,0,0,.12,7.39,8.24,8.24,0,0,1,0,.86.56.56,0,0,1-.61.59,2,2,0,0,1-.72-.13l-1.49-.55a17.12,17.12,0,0,0-2.51-.82,3.52,3.52,0,0,0-1.58-.05,1.94,1.94,0,0,0-1.33.88,2.15,2.15,0,0,0-.08,2.18,3.54,3.54,0,0,0,.76,1,7.13,7.13,0,0,0,1.19.92l1.64,1.07c.88.58,1.76,1.14,2.61,1.76a6.06,6.06,0,0,1,.74.6,1.73,1.73,0,0,1,.55,1.53,8.53,8.53,0,0,1-.22,1.12,16.48,16.48,0,0,1-1.83,4.06,22.55,22.55,0,0,1-5.55,6.05,30,30,0,0,1-4.92,3,6.54,6.54,0,0,0-.64.35c-.52.37-.54.76-.08,1.21a3.58,3.58,0,0,0,.75.52,14.34,14.34,0,0,0,2.67,1.15l2.24.63a6.6,6.6,0,0,1,1.43.58,1.88,1.88,0,0,1,1,1.27c0,.19.07.39.1.58s.08.6.16.9a1.16,1.16,0,0,0,.85.87,4.13,4.13,0,0,0,1,.18l1.92.09a24.65,24.65,0,0,1,3.93.46,12.89,12.89,0,0,1,4.2,1.59l1.56.94c.63.38,1.25.75,1.9,1.08a14.08,14.08,0,0,0,4.67,1.48,17.78,17.78,0,0,0,4.06,0,14,14,0,0,0,3.66-.89,21.14,21.14,0,0,0,3.31-1.71l1.88-1.13a12.22,12.22,0,0,1,3.08-1.22,22.66,22.66,0,0,1,4.56-.63l2.05-.1a4,4,0,0,0,1.07-.2,1.13,1.13,0,0,0,.79-.82c0-.14.07-.29.1-.44.06-.34.1-.69.17-1a1.84,1.84,0,0,1,1-1.34,6.15,6.15,0,0,1,.88-.38c.5-.18,1-.31,1.53-.45a16.65,16.65,0,0,0,3.78-1.44,5,5,0,0,0,.72-.47,1.4,1.4,0,0,0,.37-.4.54.54,0,0,0-.06-.68,1.05,1.05,0,0,0-.34-.29l-.48-.26a28.68,28.68,0,0,1-4.86-3,22.57,22.57,0,0,1-5.6-6,16.56,16.56,0,0,1-1.9-4.12,5.57,5.57,0,0,1-.25-1.39,1.73,1.73,0,0,1,.49-1.29,4.24,4.24,0,0,1,.69-.58c.59-.41,1.18-.82,1.77-1.21.83-.55,1.66-1.08,2.49-1.62a9.57,9.57,0,0,0,1.3-1,4.29,4.29,0,0,0,.69-.84,2.14,2.14,0,0,0,.17-1.89,1.83,1.83,0,0,0-1.22-1.2,2.86,2.86,0,0,0-1.3-.14,9.25,9.25,0,0,0-1.29.28c-.86.25-1.69.59-2.53.91a9.61,9.61,0,0,1-1,.35,1.43,1.43,0,0,1-.5.06.52.52,0,0,1-.55-.54,2.78,2.78,0,0,1,0-.5c.09-1.63.21-3.25.2-4.88"/><path class="cls-1" d="M187.26,464.93c0,2.61-.18,5.22-.32,7.83a5.33,5.33,0,0,0,0,.8.85.85,0,0,0,.89.87,2.69,2.69,0,0,0,.8-.09,16.19,16.19,0,0,0,1.66-.56c1.34-.52,2.67-1.06,4.06-1.47a13.14,13.14,0,0,1,2.07-.44,4.64,4.64,0,0,1,2.09.21,3,3,0,0,1,1.95,1.93,3.45,3.45,0,0,1-.28,3,6.25,6.25,0,0,1-1.1,1.36A14.58,14.58,0,0,1,197,480l-4,2.6-2.84,1.94a6.71,6.71,0,0,0-1.11,1,2.71,2.71,0,0,0-.78,2.06,9.23,9.23,0,0,0,.39,2.22,26.35,26.35,0,0,0,3,6.62,36.24,36.24,0,0,0,9,9.65,46.29,46.29,0,0,0,7.8,4.75,8.14,8.14,0,0,1,.77.41,1.91,1.91,0,0,1,.55.47.86.86,0,0,1,.09,1.09,2.36,2.36,0,0,1-.58.64,7.26,7.26,0,0,1-1.17.75,26,26,0,0,1-6.07,2.32c-.82.22-1.65.43-2.45.72a11.76,11.76,0,0,0-1.41.61,3,3,0,0,0-1.61,2.15c-.11.55-.18,1.1-.28,1.66,0,.24-.09.47-.15.71a1.85,1.85,0,0,1-1.26,1.31,6.37,6.37,0,0,1-1.72.32l-3.3.15a36.06,36.06,0,0,0-7.3,1,19.44,19.44,0,0,0-4.95,2c-1,.59-2,1.2-3,1.81a35.23,35.23,0,0,1-5.32,2.75,23,23,0,0,1-5.88,1.42,27.8,27.8,0,0,1-6.51-.07,22.74,22.74,0,0,1-7.49-2.36c-1-.54-2.05-1.13-3.05-1.74l-2.5-1.52a21.43,21.43,0,0,0-6.74-2.55,39.61,39.61,0,0,0-6.32-.73c-1,0-2.05-.09-3.07-.15a6.47,6.47,0,0,1-1.58-.28,1.9,1.9,0,0,1-1.36-1.4,13.54,13.54,0,0,1-.26-1.44c0-.31-.1-.62-.17-.93a3,3,0,0,0-1.52-2,11.47,11.47,0,0,0-2.31-.92c-1.19-.34-2.39-.66-3.58-1a21.42,21.42,0,0,1-4.29-1.84,5.62,5.62,0,0,1-1.2-.84c-.75-.71-.71-1.34.12-1.93a7.76,7.76,0,0,1,1-.56,46.73,46.73,0,0,0,7.9-4.87,36,36,0,0,0,8.9-9.71,26,26,0,0,0,2.94-6.52,12.3,12.3,0,0,0,.35-1.79,2.73,2.73,0,0,0-.87-2.45,10.07,10.07,0,0,0-1.19-1c-1.37-1-2.78-1.9-4.19-2.82l-2.64-1.71a14.34,14.34,0,0,1-1.91-1.48,5.9,5.9,0,0,1-1.21-1.55,3.41,3.41,0,0,1,.13-3.49,3.07,3.07,0,0,1,2.12-1.42,5.73,5.73,0,0,1,2.54.08,29.62,29.62,0,0,1,4,1.31c.8.31,1.6.61,2.4.89a3,3,0,0,0,1.15.21.89.89,0,0,0,1-.94,12.91,12.91,0,0,0,0-1.39,102,102,0,0,1-.21-11.86,32.89,32.89,0,0,1,1.15-7.5,21.23,21.23,0,0,1,3.19-6.62,25.16,25.16,0,0,1,13.29-9.46,28.89,28.89,0,0,1,6.38-1.22,31.75,31.75,0,0,1,5.85,0A26.67,26.67,0,0,1,179,441.84a22.38,22.38,0,0,1,7.57,13,45.41,45.41,0,0,1,.6,4.79c.12,1.76.12,3.51.13,5.27"/><path class="cls-1" d="M49.48,435.6a48.67,48.67,0,1,0,48.67,48.67A48.67,48.67,0,0,0,49.48,435.6m30.59,66.3a1.38,1.38,0,0,1-.36.4,4.32,4.32,0,0,1-.73.47,16.21,16.21,0,0,1-3.75,1.43c-.51.14-1,.27-1.52.44a6.79,6.79,0,0,0-.87.39,1.81,1.81,0,0,0-1,1.32c-.06.34-.11.69-.17,1,0,.15-.06.3-.1.44a1.15,1.15,0,0,1-.78.82,4.21,4.21,0,0,1-1.06.19l-2,.1a21.68,21.68,0,0,0-4.53.63,12.05,12.05,0,0,0-3.06,1.21c-.63.37-1.25.74-1.86,1.12a21.43,21.43,0,0,1-3.3,1.7,13.83,13.83,0,0,1-3.64.88,17.52,17.52,0,0,1-4,0A14.11,14.11,0,0,1,42.63,513c-.64-.33-1.27-.7-1.89-1.08L39.19,511A13.17,13.17,0,0,0,35,509.37a24.52,24.52,0,0,0-3.91-.45l-1.9-.09a4.13,4.13,0,0,1-1-.18,1.16,1.16,0,0,1-.84-.86,6.93,6.93,0,0,1-.16-.89c0-.2-.06-.39-.11-.58a1.85,1.85,0,0,0-.94-1.27,6.77,6.77,0,0,0-1.43-.57l-2.22-.63a13.58,13.58,0,0,1-2.66-1.14,3.8,3.8,0,0,1-.74-.52c-.46-.44-.44-.83.08-1.19a4.29,4.29,0,0,1,.63-.36,28.56,28.56,0,0,0,4.89-3,22.08,22.08,0,0,0,5.51-6,15.8,15.8,0,0,0,1.82-4,6.81,6.81,0,0,0,.22-1.11,1.71,1.71,0,0,0-.54-1.52,7.18,7.18,0,0,0-.74-.6c-.84-.61-1.72-1.17-2.59-1.74l-1.63-1.06a8.79,8.79,0,0,1-1.19-.92,3.71,3.71,0,0,1-.75-1,2.14,2.14,0,0,1,.08-2.16,1.9,1.9,0,0,1,1.32-.87,3.61,3.61,0,0,1,1.57,0,18.27,18.27,0,0,1,2.5.82c.49.18,1,.37,1.48.54a1.73,1.73,0,0,0,.71.14.56.56,0,0,0,.61-.59,8.33,8.33,0,0,0,0-.86,62,62,0,0,1-.12-7.34,20.35,20.35,0,0,1,.7-4.65,13.41,13.41,0,0,1,2-4.1,15.6,15.6,0,0,1,8.23-5.85,17.8,17.8,0,0,1,4-.76,19.89,19.89,0,0,1,3.62,0A16.48,16.48,0,0,1,60.91,458a13.82,13.82,0,0,1,4.69,8.06,27.07,27.07,0,0,1,.37,3c.08,1.09.07,2.17.08,3.26,0,1.62-.11,3.23-.2,4.85a2.78,2.78,0,0,0,0,.5.51.51,0,0,0,.55.53,1.6,1.6,0,0,0,.49-.05,8.91,8.91,0,0,0,1-.35c.83-.32,1.66-.66,2.51-.9a7.06,7.06,0,0,1,1.29-.28,2.83,2.83,0,0,1,1.29.13,1.84,1.84,0,0,1,1.21,1.2,2.13,2.13,0,0,1-.17,1.87,3.73,3.73,0,0,1-.69.84,8.83,8.83,0,0,1-1.29,1l-2.47,1.61c-.59.39-1.17.8-1.76,1.2a3.85,3.85,0,0,0-.69.59,1.66,1.66,0,0,0-.48,1.27,5.87,5.87,0,0,0,.24,1.38,16.76,16.76,0,0,0,1.89,4.1,22.42,22.42,0,0,0,5.56,6,28.71,28.71,0,0,0,4.83,2.94,5.42,5.42,0,0,1,.48.26,1.21,1.21,0,0,1,.35.29.54.54,0,0,1,0,.67"/><path class="cls-1" d="M48.81,546.05a48.81,48.81,0,1,0,48.81,48.81,48.81,48.81,0,0,0-48.81-48.81m32.51,22.27a41.86,41.86,0,0,1,9.51,26.16c-1.39-.26-15.27-3.09-29.26-1.33-.32-.69-.59-1.44-.91-2.19-.85-2-1.81-4.11-2.77-6.09,15.48-6.3,22.53-15.37,23.43-16.55M48.81,552.89a41.94,41.94,0,0,1,27.87,10.58c-.75,1.06-7.1,9.55-22.05,15.16A226.94,226.94,0,0,0,38.93,554a43.18,43.18,0,0,1,9.88-1.12m-17.89,4a265.49,265.49,0,0,1,15.59,24.3,157.63,157.63,0,0,1-38.87,5.12,42.31,42.31,0,0,1,23.28-29.42M6.74,594.91v-1.28a153.77,153.77,0,0,0,43.19-6c1.23,2.35,2.35,4.75,3.42,7.16l-1.66.48c-21.67,7-33.21,26.1-34.17,27.71A42,42,0,0,1,6.74,594.91m42.07,42A41.76,41.76,0,0,1,23,628.07c.75-1.55,9.29-18,33-26.27.1,0,.16,0,.26-.11a173.48,173.48,0,0,1,9,31.88,41.3,41.3,0,0,1-16.44,3.36m23.44-7.21a181.28,181.28,0,0,0-8.17-30,61.4,61.4,0,0,1,26.16,1.82,41.65,41.65,0,0,1-18,28.13"/><path class="cls-1" d="M188.39,571.22l-.72.63a62.69,62.69,0,0,1-7.47,5.58l-1.15.73c-.79.49-1.61,1-2.47,1.45a76.88,76.88,0,0,1-8.65,4.16c.79,1.64,1.59,3.34,2.33,5,.25.56.5,1.12.73,1.68s.34.83.5,1.24.33.8.5,1.18c1.94-.24,3.87-.4,5.77-.51,1,0,1.89-.08,2.82-.1s1.86,0,2.77,0c3.18,0,6.19.19,8.89.42,1.93.17,3.69.37,5.25.58l1.76.24,1.54.24c1.9.3,3.14.55,3.53.63a46.67,46.67,0,0,0-2.23-13.74c-.4-1.24-.85-2.46-1.35-3.65q-.37-.9-.78-1.77a46.13,46.13,0,0,0-6.14-9.74,44.72,44.72,0,0,1-5.43,5.73"/><path class="cls-1" d="M147.37,581.55c1.46-.31,2.95-.65,4.45-1q1.76-.42,3.54-.9c-2.89-5.13-5.87-9.95-8.51-14.07l-1.3-2c-.42-.65-.83-1.27-1.23-1.87s-.78-1.17-1.16-1.72c-1.48-2.2-2.73-4-3.63-5.27-.23-.31-.43-.6-.61-.85-.36-.5-.62-.86-.78-1.06a46.43,46.43,0,0,0-6.93,4,46.07,46.07,0,0,0-7.94,7.07,46.94,46.94,0,0,0-4.81,6.4l-.69,1.14a46,46,0,0,0-5.34,13.84,174.45,174.45,0,0,0,34.94-3.75"/><path class="cls-1" d="M155.09,548.52a48.17,48.17,0,0,0-5.28.59q-1.42.24-2.82.57c.12.17.3.42.55.75,1,1.32,2.82,3.9,5.16,7.38.39.58.79,1.18,1.2,1.81,3.11,4.7,6.86,10.7,10.43,17.25q2.32-.87,4.39-1.82c.93-.41,1.81-.84,2.67-1.27a55.41,55.41,0,0,0,14.12-10c.34-.34.65-.67.94-1l.4-.45c.26-.28.49-.55.7-.79.61-.72,1-1.23,1.14-1.45-1-.91-2.09-1.77-3.2-2.58a46.37,46.37,0,0,0-27.59-9.1c-.94,0-1.88,0-2.81.08"/><path class="cls-1" d="M192.06,599.91l-2.17-.2-1.13-.08c-.76,0-1.54-.09-2.34-.11s-1.62,0-2.45,0a60.78,60.78,0,0,0-9.2.74c2.08,5.73,3.75,11.1,5,15.79.36,1.28.68,2.51,1,3.68,1,3.91,1.73,7.18,2.23,9.6.09.48.18.93.26,1.34l.12.59c.17.94.3,1.64.37,2.08A46.47,46.47,0,0,0,196.89,620a45.69,45.69,0,0,0,6.78-17.75,62.41,62.41,0,0,0-11.61-2.32"/><path class="cls-1" d="M162.66,641a46.19,46.19,0,0,0,6.89-1.23c.75-.2,1.48-.41,2.22-.64,1.46-.46,2.89-1,4.29-1.6-.2-1.17-.57-3.19-1.14-5.87-.1-.45-.2-.93-.31-1.42l-.09-.42c-.57-2.5-1.28-5.43-2.18-8.71-.23-.85-.48-1.71-.73-2.6s-.53-1.79-.81-2.72-.58-1.87-.89-2.83c-1.08-3.37-2.32-6.94-3.75-10.64-.12.06-.18.06-.3.12a70.7,70.7,0,0,0-27.73,17.29c-.36.37-.71.74-1,1.1q-1,1.08-1.86,2.1c-.57.68-1.1,1.34-1.58,2s-.92,1.22-1.32,1.78a38.25,38.25,0,0,0-2.92,4.78c1,.77,2,1.5,3,2.19a46.47,46.47,0,0,0,10.12,5c1.2.42,2.42.79,3.67,1.11a46.17,46.17,0,0,0,11.66,1.48,46.68,46.68,0,0,0,4.76-.24"/><path class="cls-1" d="M118.76,619.86a47.27,47.27,0,0,0,4.58,6c.23-.39,1-1.7,2.37-3.59.19-.28.39-.56.61-.85a78.51,78.51,0,0,1,7.31-8.63,76.68,76.68,0,0,1,6.75-6.15,64.89,64.89,0,0,1,20.7-11.39L162,595l.91-.27c-.29-.66-.59-1.33-.89-2-.91-2-1.86-4-2.88-5.91-4.35,1.3-8.67,2.35-12.84,3.2l-2.07.4c-6.17,1.17-11.95,1.89-16.89,2.33-2.19.2-4.22.34-6,.44-.91,0-1.77.1-2.58.13l-1.17,0-2.06.06c-2.2,0-3.62,0-4.06,0v1.42c0,1.49.08,3,.21,4.42s.35,2.89.62,4.3a46.19,46.19,0,0,0,5.06,13.87c.46.82,1,1.62,1.45,2.41"/></g><path class="cls-1" d="M49.1,659.48a49,49,0,1,0,49,49A49,49,0,0,0,49.1,659.48Zm25.15,36.09c0,.56,0,1.12,0,1.68,0,17.16-13.05,36.94-36.93,36.94a36.74,36.74,0,0,1-19.9-5.83A26.24,26.24,0,0,0,36.68,723a13,13,0,0,1-12.13-9,13.11,13.11,0,0,0,2.44.24,12.78,12.78,0,0,0,3.42-.46A13,13,0,0,1,20,701v-.16a13,13,0,0,0,5.88,1.62,13,13,0,0,1-4-17.33,36.85,36.85,0,0,0,26.76,13.57,13,13,0,0,1,12.65-15.94,12.94,12.94,0,0,1,9.47,4.1A26.39,26.39,0,0,0,79,683.72a13,13,0,0,1-5.71,7.18,26,26,0,0,0,7.46-2A26.25,26.25,0,0,1,74.25,695.57Z"/><g id="Vector_Smart_Object" data-name="Vector Smart Object"><path class="cls-1" d="M224.25,670.65A49.62,49.62,0,0,1,210,674.56a24.85,24.85,0,0,0,10.92-13.75,49.84,49.84,0,0,1-15.78,6,24.87,24.87,0,0,0-42.34,22.65,70.52,70.52,0,0,1-51.22-26,24.88,24.88,0,0,0,7.69,33.17,24.76,24.76,0,0,1-11.25-3.1v.31a24.85,24.85,0,0,0,19.93,24.36,24.77,24.77,0,0,1-6.55.87,25.59,25.59,0,0,1-4.67-.44A24.88,24.88,0,0,0,139.92,736a49.86,49.86,0,0,1-30.86,10.64,50.62,50.62,0,0,1-5.93-.35,70.35,70.35,0,0,0,38.09,11.16c45.71,0,70.69-37.86,70.69-70.7,0-1.07,0-2.14-.07-3.21a50.57,50.57,0,0,0,12.41-12.86"/></g></g></g></svg>